%TF.GenerationSoftware,KiCad,Pcbnew,9.0.4*%
%TF.CreationDate,2025-10-08T09:42:31-04:00*%
%TF.ProjectId,C64-128AVS,4336342d-3132-4384-9156-532e6b696361,rev?*%
%TF.SameCoordinates,Original*%
%TF.FileFunction,Soldermask,Top*%
%TF.FilePolarity,Negative*%
%FSLAX46Y46*%
G04 Gerber Fmt 4.6, Leading zero omitted, Abs format (unit mm)*
G04 Created by KiCad (PCBNEW 9.0.4) date 2025-10-08 09:42:31*
%MOMM*%
%LPD*%
G01*
G04 APERTURE LIST*
G04 Aperture macros list*
%AMHorizOval*
0 Thick line with rounded ends*
0 $1 width*
0 $2 $3 position (X,Y) of the first rounded end (center of the circle)*
0 $4 $5 position (X,Y) of the second rounded end (center of the circle)*
0 Add line between two ends*
20,1,$1,$2,$3,$4,$5,0*
0 Add two circle primitives to create the rounded ends*
1,1,$1,$2,$3*
1,1,$1,$4,$5*%
G04 Aperture macros list end*
%ADD10O,2.200000X1.200000*%
%ADD11O,1.200000X2.200000*%
%ADD12R,1.700000X1.700000*%
%ADD13C,1.700000*%
%ADD14C,1.600200*%
%ADD15C,1.660400*%
%ADD16C,1.860400*%
%ADD17R,1.350000X1.350000*%
%ADD18C,1.350000*%
%ADD19C,1.200000*%
%ADD20C,2.743200*%
%ADD21C,2.703200*%
%ADD22O,5.029200X2.616200*%
%ADD23O,2.616200X5.029200*%
%ADD24HorizOval,2.616200X0.853124X-0.853124X-0.853124X0.853124X0*%
%ADD25HorizOval,2.616200X-0.853124X-0.853124X0.853124X0.853124X0*%
%ADD26O,2.743200X5.283200*%
%ADD27HorizOval,2.616200X0.896604X0.807306X-0.896604X-0.807306X0*%
%ADD28HorizOval,2.616200X-0.896604X0.807306X0.896604X-0.807306X0*%
G04 APERTURE END LIST*
D10*
%TO.C,J12*%
X130860800Y-102285800D03*
X127254000Y-100660200D03*
D11*
X131470399Y-98120200D03*
D10*
X130810000Y-94208600D03*
X127254000Y-95580200D03*
%TD*%
D12*
%TO.C,J7*%
X128820001Y-89175000D03*
D13*
X131360001Y-89175000D03*
X133900000Y-89175000D03*
%TD*%
D14*
%TO.C,R1*%
X174275000Y-101525000D03*
X174275000Y-91365002D03*
%TD*%
D12*
%TO.C,J8*%
X141295001Y-89200000D03*
D13*
X143835001Y-89200000D03*
X146375000Y-89200000D03*
%TD*%
D15*
%TO.C,J1*%
X168850000Y-96650000D03*
X163050000Y-96650000D03*
X168350000Y-94650000D03*
X163550000Y-94650000D03*
D16*
X170550000Y-96250000D03*
X161350000Y-96250000D03*
%TD*%
D17*
%TO.C,J11*%
X188525000Y-89675000D03*
D18*
X188525000Y-91675000D03*
X188525000Y-93675000D03*
X188525000Y-95675000D03*
X188525000Y-97675000D03*
X188525000Y-99675000D03*
X188525000Y-101675000D03*
X188525000Y-103675000D03*
%TD*%
D19*
%TO.C,J13*%
X164736600Y-109444600D03*
D11*
X168902200Y-104974200D03*
X167276600Y-108581000D03*
D10*
X164736600Y-104364601D03*
D11*
X160825000Y-105025000D03*
X162196600Y-108581000D03*
%TD*%
D20*
%TO.C,J6*%
X181225000Y-103200000D03*
X181225000Y-92900000D03*
D21*
X179625000Y-98050000D03*
%TD*%
D20*
%TO.C,J3*%
X128000000Y-103250000D03*
X128000000Y-92950000D03*
D21*
X126400000Y-98100000D03*
%TD*%
D12*
%TO.C,J10*%
X180785000Y-89340000D03*
D13*
X178245000Y-89340000D03*
%TD*%
D20*
%TO.C,J5*%
X152000000Y-103250000D03*
X152000000Y-92950000D03*
D21*
X150400000Y-98100000D03*
%TD*%
D12*
%TO.C,J9*%
X153882501Y-89200000D03*
D13*
X156422501Y-89200000D03*
X158962500Y-89200000D03*
%TD*%
D20*
%TO.C,J4*%
X140000000Y-103250000D03*
X140000000Y-92950000D03*
D21*
X138400000Y-98100000D03*
%TD*%
D22*
%TO.C,J2*%
X169363607Y-119150856D03*
D23*
X164657107Y-123857356D03*
D22*
X159950607Y-119150856D03*
D24*
X167980231Y-122473980D03*
D25*
X161333983Y-122473980D03*
D26*
X164657107Y-116980856D03*
D27*
X168853711Y-115443550D03*
D28*
X160460503Y-115443550D03*
%TD*%
M02*
