%TF.GenerationSoftware,KiCad,Pcbnew,9.0.4*%
%TF.CreationDate,2025-10-08T09:42:30-04:00*%
%TF.ProjectId,C64-128AVS,4336342d-3132-4384-9156-532e6b696361,rev?*%
%TF.SameCoordinates,Original*%
%TF.FileFunction,Copper,L1,Top*%
%TF.FilePolarity,Positive*%
%FSLAX46Y46*%
G04 Gerber Fmt 4.6, Leading zero omitted, Abs format (unit mm)*
G04 Created by KiCad (PCBNEW 9.0.4) date 2025-10-08 09:42:30*
%MOMM*%
%LPD*%
G01*
G04 APERTURE LIST*
G04 Aperture macros list*
%AMHorizOval*
0 Thick line with rounded ends*
0 $1 width*
0 $2 $3 position (X,Y) of the first rounded end (center of the circle)*
0 $4 $5 position (X,Y) of the second rounded end (center of the circle)*
0 Add line between two ends*
20,1,$1,$2,$3,$4,$5,0*
0 Add two circle primitives to create the rounded ends*
1,1,$1,$2,$3*
1,1,$1,$4,$5*%
G04 Aperture macros list end*
%TA.AperFunction,ComponentPad*%
%ADD10O,2.200000X1.200000*%
%TD*%
%TA.AperFunction,ComponentPad*%
%ADD11O,1.200000X2.200000*%
%TD*%
%TA.AperFunction,ComponentPad*%
%ADD12R,1.700000X1.700000*%
%TD*%
%TA.AperFunction,ComponentPad*%
%ADD13C,1.700000*%
%TD*%
%TA.AperFunction,ComponentPad*%
%ADD14C,1.397000*%
%TD*%
%TA.AperFunction,ComponentPad*%
%ADD15C,1.457200*%
%TD*%
%TA.AperFunction,ComponentPad*%
%ADD16C,1.657200*%
%TD*%
%TA.AperFunction,ComponentPad*%
%ADD17R,1.350000X1.350000*%
%TD*%
%TA.AperFunction,ComponentPad*%
%ADD18C,1.350000*%
%TD*%
%TA.AperFunction,ComponentPad*%
%ADD19C,2.540000*%
%TD*%
%TA.AperFunction,ComponentPad*%
%ADD20C,2.500000*%
%TD*%
%TA.AperFunction,ComponentPad*%
%ADD21O,4.826000X2.413000*%
%TD*%
%TA.AperFunction,ComponentPad*%
%ADD22O,2.413000X4.826000*%
%TD*%
%TA.AperFunction,ComponentPad*%
%ADD23HorizOval,2.413000X0.853124X-0.853124X-0.853124X0.853124X0*%
%TD*%
%TA.AperFunction,ComponentPad*%
%ADD24HorizOval,2.413000X-0.853124X-0.853124X0.853124X0.853124X0*%
%TD*%
%TA.AperFunction,ComponentPad*%
%ADD25O,2.540000X5.080000*%
%TD*%
%TA.AperFunction,ComponentPad*%
%ADD26HorizOval,2.413000X0.896604X0.807306X-0.896604X-0.807306X0*%
%TD*%
%TA.AperFunction,ComponentPad*%
%ADD27HorizOval,2.413000X-0.896604X0.807306X0.896604X-0.807306X0*%
%TD*%
%TA.AperFunction,ViaPad*%
%ADD28C,0.600000*%
%TD*%
%TA.AperFunction,Conductor*%
%ADD29C,0.300000*%
%TD*%
%TA.AperFunction,Conductor*%
%ADD30C,0.600000*%
%TD*%
%TA.AperFunction,Conductor*%
%ADD31C,0.609600*%
%TD*%
%TA.AperFunction,Conductor*%
%ADD32C,0.304800*%
%TD*%
G04 APERTURE END LIST*
D10*
%TO.P,J12,R*%
%TO.N,ExtAudio*%
X130860800Y-102285800D03*
%TO.P,J12,RN*%
%TO.N,unconnected-(J12-PadRN)*%
X127254000Y-100660200D03*
D11*
%TO.P,J12,S*%
%TO.N,GND*%
X131470399Y-98120200D03*
D10*
%TO.P,J12,T*%
%TO.N,ExtAudio*%
X130810000Y-94208600D03*
%TO.P,J12,TN*%
%TO.N,unconnected-(J12-PadTN)*%
X127254000Y-95580200D03*
%TD*%
D12*
%TO.P,J7,1,Pin_1*%
%TO.N,ExtAudio*%
X128820001Y-89175000D03*
D13*
%TO.P,J7,2,Pin_2*%
%TO.N,AudioIN*%
X131360001Y-89175000D03*
%TO.P,J7,3,Pin_3*%
%TO.N,Net-(J7-Pin_3)*%
X133900000Y-89175000D03*
%TD*%
D14*
%TO.P,R1,1,1*%
%TO.N,Chroma*%
X174275000Y-101525000D03*
%TO.P,R1,2,2*%
%TO.N,ChromaFix*%
X174275000Y-91365002D03*
%TD*%
D12*
%TO.P,J8,1,Pin_1*%
%TO.N,AudioL*%
X141295001Y-89200000D03*
D13*
%TO.P,J8,2,Pin_2*%
X143835001Y-89200000D03*
%TO.P,J8,3,Pin_3*%
%TO.N,AudioR*%
X146375000Y-89200000D03*
%TD*%
D15*
%TO.P,J1,1,1*%
%TO.N,GND*%
X168850000Y-96650000D03*
%TO.P,J1,2,2*%
X163050000Y-96650000D03*
%TO.P,J1,3,3*%
%TO.N,Luma*%
X168350000Y-94650000D03*
%TO.P,J1,4,4*%
%TO.N,ChromaFix*%
X163550000Y-94650000D03*
D16*
%TO.P,J1,CS1,CS1*%
%TO.N,unconnected-(J1-PadCS1)*%
X170550000Y-96250000D03*
%TO.P,J1,CS2,CS2*%
%TO.N,unconnected-(J1-PadCS2)*%
X161350000Y-96250000D03*
%TD*%
D17*
%TO.P,J11,1,Pin_1*%
%TO.N,Luma*%
X188525000Y-89675000D03*
D18*
%TO.P,J11,2,Pin_2*%
%TO.N,GND*%
X188525000Y-91675000D03*
%TO.P,J11,3,Pin_3*%
%TO.N,AudioL*%
X188525000Y-93675000D03*
%TO.P,J11,4,Pin_4*%
%TO.N,Composite*%
X188525000Y-95675000D03*
%TO.P,J11,5,Pin_5*%
%TO.N,AudioIN*%
X188525000Y-97675000D03*
%TO.P,J11,6,Pin_6*%
%TO.N,Chroma*%
X188525000Y-99675000D03*
%TO.P,J11,7,Pin_7*%
%TO.N,unconnected-(J11-Pin_7-Pad7)*%
X188525000Y-101675000D03*
%TO.P,J11,8,Pin_8*%
%TO.N,5V*%
X188525000Y-103675000D03*
%TD*%
D11*
%TO.P,J13,R*%
%TO.N,ExtAudio*%
X168902200Y-104974200D03*
%TO.P,J13,RN*%
%TO.N,unconnected-(J13-PadRN)*%
X167276600Y-108581000D03*
D10*
%TO.P,J13,S*%
%TO.N,GND*%
X164736600Y-104364601D03*
D11*
%TO.P,J13,T*%
%TO.N,ExtAudio*%
X160825000Y-105025000D03*
%TO.P,J13,TN*%
%TO.N,unconnected-(J13-PadTN)*%
X162196600Y-108581000D03*
%TD*%
D19*
%TO.P,J6,R1,R*%
%TO.N,GND*%
X181225000Y-103200000D03*
%TO.P,J6,R2,R*%
X181225000Y-92900000D03*
D20*
%TO.P,J6,T,T*%
%TO.N,Composite*%
X179625000Y-98050000D03*
%TD*%
D19*
%TO.P,J3,R1,R*%
%TO.N,GND*%
X128000000Y-103250000D03*
%TO.P,J3,R2,R*%
X128000000Y-92950000D03*
D20*
%TO.P,J3,T,T*%
%TO.N,ExtAudio*%
X126400000Y-98100000D03*
%TD*%
D12*
%TO.P,J10,1,Pin_1*%
%TO.N,5V*%
X180785000Y-89340000D03*
D13*
%TO.P,J10,2,Pin_2*%
%TO.N,GND*%
X178245000Y-89340000D03*
%TD*%
D19*
%TO.P,J5,R1,R*%
%TO.N,GND*%
X152000000Y-103250000D03*
%TO.P,J5,R2,R*%
X152000000Y-92950000D03*
D20*
%TO.P,J5,T,T*%
%TO.N,AudioR*%
X150400000Y-98100000D03*
%TD*%
D12*
%TO.P,J9,1,Pin_1*%
%TO.N,unconnected-(J9-Pin_1-Pad1)*%
X153882501Y-89200000D03*
D13*
%TO.P,J9,2,Pin_2*%
%TO.N,Chroma*%
X156422501Y-89200000D03*
%TO.P,J9,3,Pin_3*%
%TO.N,ChromaFix*%
X158962500Y-89200000D03*
%TD*%
D19*
%TO.P,J4,R1,R*%
%TO.N,GND*%
X140000000Y-103250000D03*
%TO.P,J4,R2,R*%
X140000000Y-92950000D03*
D20*
%TO.P,J4,T,T*%
%TO.N,AudioL*%
X138400000Y-98100000D03*
%TD*%
D21*
%TO.P,J2,1,1*%
%TO.N,Net-(JP2-B)*%
X169363607Y-119150856D03*
D22*
%TO.P,J2,2,2*%
%TO.N,GND*%
X164657107Y-123857356D03*
D21*
%TO.P,J2,3,3*%
%TO.N,AudioL*%
X159950607Y-119150856D03*
D23*
%TO.P,J2,4,4*%
%TO.N,Composite*%
X167980231Y-122473980D03*
D24*
%TO.P,J2,5,5*%
%TO.N,Net-(JP3-B)*%
X161333983Y-122473980D03*
D25*
%TO.P,J2,6,6*%
%TO.N,Chroma*%
X164657107Y-116980856D03*
D26*
%TO.P,J2,7,7*%
%TO.N,AudioR*%
X168853711Y-115443550D03*
D27*
%TO.P,J2,8,8*%
%TO.N,5V*%
X160460503Y-115443550D03*
%TD*%
D28*
%TO.N,Luma*%
X176325000Y-90092400D03*
%TO.N,AudioL*%
X176625000Y-98825000D03*
X155200000Y-99900000D03*
%TO.N,Chroma*%
X178465000Y-101525000D03*
%TO.N,AudioIN*%
X164810000Y-90990000D03*
%TO.N,ExtAudio*%
X153275000Y-101425000D03*
%TO.N,Net-(JP3-B)*%
X172200000Y-97225000D03*
X154450000Y-100675000D03*
X156275000Y-95175000D03*
%TO.N,Net-(JP2-B)*%
X171508357Y-113320000D03*
%TD*%
D29*
%TO.N,AudioIN*%
X168335000Y-90990000D02*
X164810000Y-90990000D01*
X171350000Y-87975000D02*
X168335000Y-90990000D01*
X184450000Y-90725000D02*
X181700000Y-87975000D01*
X187450000Y-97850000D02*
X184450000Y-94850000D01*
X188890000Y-97850000D02*
X187450000Y-97850000D01*
X184450000Y-94850000D02*
X184450000Y-90725000D01*
X181700000Y-87975000D02*
X171350000Y-87975000D01*
D30*
%TO.N,GND*%
X167925000Y-92950000D02*
X164875000Y-92950000D01*
X171535000Y-89340000D02*
X167925000Y-92950000D01*
X178245000Y-89340000D02*
X171535000Y-89340000D01*
D29*
%TO.N,ExtAudio*%
X167078000Y-103150000D02*
X168902200Y-104974200D01*
X162700000Y-103150000D02*
X167078000Y-103150000D01*
X160825000Y-105025000D02*
X162700000Y-103150000D01*
D31*
%TO.N,GND*%
X133375400Y-98933000D02*
X133375400Y-103759000D01*
X132562600Y-98120200D02*
X133375400Y-98933000D01*
X131470399Y-98120200D02*
X132562600Y-98120200D01*
X155625000Y-103250000D02*
X156925000Y-104550000D01*
X153900000Y-103250000D02*
X155625000Y-103250000D01*
X156925000Y-104550000D02*
X156925000Y-107025000D01*
D29*
%TO.N,ExtAudio*%
X158700000Y-105025000D02*
X160825000Y-105025000D01*
X155100000Y-101425000D02*
X158700000Y-105025000D01*
X153275000Y-101425000D02*
X155100000Y-101425000D01*
%TO.N,Net-(JP3-B)*%
X154450000Y-100675000D02*
X154450000Y-98975000D01*
X154450000Y-98975000D02*
X154900000Y-98525000D01*
%TO.N,Chroma*%
X171075000Y-109345000D02*
X164657107Y-115762893D01*
X174242800Y-101525000D02*
X171075000Y-104692800D01*
X171075000Y-104692800D02*
X171075000Y-109345000D01*
X164657107Y-115762893D02*
X164657107Y-118250856D01*
X174275000Y-101525000D02*
X174242800Y-101525000D01*
D30*
%TO.N,5V*%
X181980000Y-100140000D02*
X183580000Y-98540000D01*
X170425000Y-103361600D02*
X173646600Y-100140000D01*
X170425000Y-108995000D02*
X170425000Y-103361600D01*
X173646600Y-100140000D02*
X181980000Y-100140000D01*
X166059800Y-113360200D02*
X170425000Y-108995000D01*
X161357107Y-114532893D02*
X162529800Y-113360200D01*
X162529800Y-113360200D02*
X166059800Y-113360200D01*
X161357107Y-116250856D02*
X161357107Y-114532893D01*
D31*
%TO.N,GND*%
X172375000Y-104875000D02*
X172375000Y-122220000D01*
X174025000Y-103225000D02*
X172375000Y-104875000D01*
X181200000Y-103225000D02*
X174025000Y-103225000D01*
X181225000Y-103200000D02*
X181200000Y-103225000D01*
D29*
%TO.N,Net-(JP3-B)*%
X171075000Y-98350000D02*
X158000000Y-98350000D01*
X172200000Y-97225000D02*
X171075000Y-98350000D01*
%TO.N,Luma*%
X176307600Y-90075000D02*
X172900000Y-90075000D01*
X176325000Y-90092400D02*
X176307600Y-90075000D01*
X172900000Y-90075000D02*
X168350000Y-94625000D01*
X168350000Y-94625000D02*
X168350000Y-94650000D01*
D31*
%TO.N,GND*%
X164657107Y-123492706D02*
X164657107Y-122650856D01*
X128509000Y-103759000D02*
X133375400Y-103759000D01*
D30*
X156925000Y-122010000D02*
X156925000Y-122941456D01*
D31*
X156925000Y-107025000D02*
X156925000Y-122010000D01*
X161250000Y-107025000D02*
X163910399Y-104364601D01*
D30*
X152000000Y-103250000D02*
X153900000Y-103250000D01*
D31*
X140000000Y-92950000D02*
X139683800Y-92633800D01*
X164657107Y-123506456D02*
X164657107Y-122650856D01*
X123596400Y-95173800D02*
X125820200Y-92950000D01*
X172375000Y-122220000D02*
X172375000Y-122631900D01*
X128000000Y-103250000D02*
X128509000Y-103759000D01*
X164657107Y-122650856D02*
X164657107Y-124302894D01*
X135686800Y-103759000D02*
X139491000Y-103759000D01*
D30*
X172375000Y-122220000D02*
X172375000Y-122747106D01*
X165200000Y-96650000D02*
X163050000Y-96650000D01*
D31*
X140000000Y-101125000D02*
X140000000Y-103250000D01*
D30*
X152869050Y-95897450D02*
X152869050Y-100305950D01*
D31*
X169400000Y-125722106D02*
X166872757Y-125722106D01*
X123596400Y-101066600D02*
X123596400Y-95173800D01*
X133375400Y-103759000D02*
X135686800Y-103759000D01*
X140000000Y-92950000D02*
X140000000Y-95125000D01*
X140000000Y-103250000D02*
X140000000Y-104097500D01*
X152350000Y-103600000D02*
X152000000Y-103250000D01*
X163910399Y-104364601D02*
X164736600Y-104364601D01*
X128000000Y-103250000D02*
X125779800Y-103250000D01*
D30*
X165225000Y-96625000D02*
X165250000Y-96650000D01*
X156925000Y-122941456D02*
X159600000Y-125616456D01*
X152000000Y-92950000D02*
X152000000Y-95028400D01*
D31*
X125820200Y-92950000D02*
X128000000Y-92950000D01*
X156925000Y-107025000D02*
X161250000Y-107025000D01*
X141075000Y-96200000D02*
X141075000Y-100050000D01*
X139683800Y-92633800D02*
X128316200Y-92633800D01*
X140000000Y-103250000D02*
X152000000Y-103250000D01*
X141075000Y-100050000D02*
X140000000Y-101125000D01*
X128316200Y-92633800D02*
X128000000Y-92950000D01*
D30*
X152869050Y-100305950D02*
X152000000Y-101175000D01*
D31*
X140000000Y-95125000D02*
X141075000Y-96200000D01*
D30*
X165250000Y-96650000D02*
X168850000Y-96650000D01*
X164875000Y-92950000D02*
X165225000Y-93300000D01*
D31*
X125779800Y-103250000D02*
X123596400Y-101066600D01*
D30*
X164875000Y-92950000D02*
X152000000Y-92950000D01*
X178245000Y-89920000D02*
X181225000Y-92900000D01*
X152000000Y-95028400D02*
X152869050Y-95897450D01*
X152000000Y-101175000D02*
X152000000Y-103250000D01*
D31*
X162533357Y-125616456D02*
X164657107Y-123492706D01*
X156925000Y-122010000D02*
X156925000Y-122920000D01*
D30*
X165225000Y-93300000D02*
X165225000Y-96625000D01*
X178245000Y-89340000D02*
X178245000Y-89920000D01*
D31*
X140000000Y-92950000D02*
X152000000Y-92950000D01*
D30*
X172375000Y-122747106D02*
X169400000Y-125722106D01*
X165225000Y-96625000D02*
X165200000Y-96650000D01*
D31*
X166872757Y-125722106D02*
X164657107Y-123506456D01*
X139491000Y-103759000D02*
X140000000Y-103250000D01*
X159600000Y-125616456D02*
X162533357Y-125616456D01*
X164657107Y-124302894D02*
G75*
G03*
X164949998Y-125010002I999993J-6D01*
G01*
D29*
%TO.N,AudioR*%
X150400000Y-98100000D02*
X150361700Y-98100000D01*
%TO.N,AudioL*%
X176625000Y-98825000D02*
X156275000Y-98825000D01*
X156275000Y-98825000D02*
X155200000Y-99900000D01*
X138400000Y-98100000D02*
X138409200Y-98100000D01*
%TO.N,Chroma*%
X178465000Y-101525000D02*
X174275000Y-101525000D01*
D32*
X164657107Y-115299436D02*
X164657107Y-118250856D01*
D30*
%TO.N,5V*%
X183580000Y-94900000D02*
X183580000Y-92180000D01*
X186245000Y-101205000D02*
X188890000Y-103850000D01*
X183580000Y-94900000D02*
X183580000Y-98540000D01*
X183580000Y-92180000D02*
X180785000Y-89385000D01*
X180785000Y-89385000D02*
X180785000Y-89340000D01*
X183580000Y-98540000D02*
X186245000Y-101205000D01*
D29*
%TO.N,AudioIN*%
X164810000Y-90990000D02*
X164270000Y-90990000D01*
X164270000Y-90990000D02*
X164260000Y-91000000D01*
X164260000Y-91000000D02*
X133185001Y-91000000D01*
X133185001Y-91000000D02*
X131360001Y-89175000D01*
%TO.N,Net-(JP3-B)*%
X156150000Y-95300000D02*
X156275000Y-95175000D01*
X155175000Y-96275000D02*
X156275000Y-95175000D01*
X154900000Y-98525000D02*
X155175000Y-98250000D01*
X155175000Y-98250000D02*
X155175000Y-96275000D01*
X158000000Y-98350000D02*
X155075000Y-98350000D01*
X155075000Y-98350000D02*
X154900000Y-98525000D01*
D32*
%TO.N,Net-(JP2-B)*%
X171508357Y-113320000D02*
X171508357Y-116091456D01*
X171508357Y-116091456D02*
X168448957Y-119150856D01*
X168448957Y-119150856D02*
X168157107Y-119150856D01*
%TD*%
M02*
