%TF.GenerationSoftware,KiCad,Pcbnew,9.0.4*%
%TF.CreationDate,2025-10-08T09:42:32-04:00*%
%TF.ProjectId,C64-128AVS,4336342d-3132-4384-9156-532e6b696361,rev?*%
%TF.SameCoordinates,Original*%
%TF.FileFunction,Soldermask,Bot*%
%TF.FilePolarity,Negative*%
%FSLAX46Y46*%
G04 Gerber Fmt 4.6, Leading zero omitted, Abs format (unit mm)*
G04 Created by KiCad (PCBNEW 9.0.4) date 2025-10-08 09:42:32*
%MOMM*%
%LPD*%
G01*
G04 APERTURE LIST*
G04 Aperture macros list*
%AMHorizOval*
0 Thick line with rounded ends*
0 $1 width*
0 $2 $3 position (X,Y) of the first rounded end (center of the circle)*
0 $4 $5 position (X,Y) of the second rounded end (center of the circle)*
0 Add line between two ends*
20,1,$1,$2,$3,$4,$5,0*
0 Add two circle primitives to create the rounded ends*
1,1,$1,$2,$3*
1,1,$1,$4,$5*%
%AMFreePoly0*
4,1,23,0.500000,-0.750000,0.000000,-0.750000,0.000000,-0.745722,-0.065263,-0.745722,-0.191342,-0.711940,-0.304381,-0.646677,-0.396677,-0.554381,-0.461940,-0.441342,-0.495722,-0.315263,-0.495722,-0.250000,-0.500000,-0.250000,-0.500000,0.250000,-0.495722,0.250000,-0.495722,0.315263,-0.461940,0.441342,-0.396677,0.554381,-0.304381,0.646677,-0.191342,0.711940,-0.065263,0.745722,0.000000,0.745722,
0.000000,0.750000,0.500000,0.750000,0.500000,-0.750000,0.500000,-0.750000,$1*%
%AMFreePoly1*
4,1,23,0.000000,0.745722,0.065263,0.745722,0.191342,0.711940,0.304381,0.646677,0.396677,0.554381,0.461940,0.441342,0.495722,0.315263,0.495722,0.250000,0.500000,0.250000,0.500000,-0.250000,0.495722,-0.250000,0.495722,-0.315263,0.461940,-0.441342,0.396677,-0.554381,0.304381,-0.646677,0.191342,-0.711940,0.065263,-0.745722,0.000000,-0.745722,0.000000,-0.750000,-0.500000,-0.750000,
-0.500000,0.750000,0.000000,0.750000,0.000000,0.745722,0.000000,0.745722,$1*%
%AMFreePoly2*
4,1,23,0.550000,-0.750000,0.000000,-0.750000,0.000000,-0.745722,-0.065263,-0.745722,-0.191342,-0.711940,-0.304381,-0.646677,-0.396677,-0.554381,-0.461940,-0.441342,-0.495722,-0.315263,-0.495722,-0.250000,-0.500000,-0.250000,-0.500000,0.250000,-0.495722,0.250000,-0.495722,0.315263,-0.461940,0.441342,-0.396677,0.554381,-0.304381,0.646677,-0.191342,0.711940,-0.065263,0.745722,0.000000,0.745722,
0.000000,0.750000,0.550000,0.750000,0.550000,-0.750000,0.550000,-0.750000,$1*%
%AMFreePoly3*
4,1,23,0.000000,0.745722,0.065263,0.745722,0.191342,0.711940,0.304381,0.646677,0.396677,0.554381,0.461940,0.441342,0.495722,0.315263,0.495722,0.250000,0.500000,0.250000,0.500000,-0.250000,0.495722,-0.250000,0.495722,-0.315263,0.461940,-0.441342,0.396677,-0.554381,0.304381,-0.646677,0.191342,-0.711940,0.065263,-0.745722,0.000000,-0.745722,0.000000,-0.750000,-0.550000,-0.750000,
-0.550000,0.750000,0.000000,0.750000,0.000000,0.745722,0.000000,0.745722,$1*%
G04 Aperture macros list end*
%ADD10C,0.000000*%
%ADD11O,2.200000X1.200000*%
%ADD12O,1.200000X2.200000*%
%ADD13R,1.700000X1.700000*%
%ADD14C,1.700000*%
%ADD15C,1.600200*%
%ADD16C,1.660400*%
%ADD17C,1.860400*%
%ADD18R,1.350000X1.350000*%
%ADD19C,1.350000*%
%ADD20C,1.200000*%
%ADD21C,2.743200*%
%ADD22C,2.703200*%
%ADD23FreePoly0,270.000000*%
%ADD24FreePoly1,270.000000*%
%ADD25O,5.029200X2.616200*%
%ADD26O,2.616200X5.029200*%
%ADD27HorizOval,2.616200X0.853124X-0.853124X-0.853124X0.853124X0*%
%ADD28HorizOval,2.616200X-0.853124X-0.853124X0.853124X0.853124X0*%
%ADD29O,2.743200X5.283200*%
%ADD30HorizOval,2.616200X0.896604X0.807306X-0.896604X-0.807306X0*%
%ADD31HorizOval,2.616200X-0.896604X0.807306X0.896604X-0.807306X0*%
%ADD32FreePoly0,90.000000*%
%ADD33FreePoly1,90.000000*%
%ADD34FreePoly2,270.000000*%
%ADD35R,1.500000X1.000000*%
%ADD36FreePoly3,270.000000*%
G04 APERTURE END LIST*
D10*
%TO.C,JP4*%
G36*
X138037000Y-92438601D02*
G01*
X136537000Y-92438601D01*
X136537000Y-92138601D01*
X138037000Y-92138601D01*
X138037000Y-92438601D01*
G37*
%TO.C,JP3*%
G36*
X158712600Y-95613601D02*
G01*
X157212600Y-95613601D01*
X157212600Y-95313601D01*
X158712600Y-95313601D01*
X158712600Y-95613601D01*
G37*
%TO.C,JP5*%
G36*
X177300000Y-95250000D02*
G01*
X175800000Y-95250000D01*
X175800000Y-93750000D01*
X177300000Y-93750000D01*
X177300000Y-95250000D01*
G37*
%TO.C,JP2*%
G36*
X170225000Y-101275000D02*
G01*
X168725000Y-101275000D01*
X168725000Y-100975000D01*
X170225000Y-100975000D01*
X170225000Y-101275000D01*
G37*
%TD*%
D11*
%TO.C,J12*%
X130860800Y-102285800D03*
X127254000Y-100660200D03*
D12*
X131470399Y-98120200D03*
D11*
X130810000Y-94208600D03*
X127254000Y-95580200D03*
%TD*%
D13*
%TO.C,J7*%
X128820001Y-89175000D03*
D14*
X131360001Y-89175000D03*
X133900000Y-89175000D03*
%TD*%
D15*
%TO.C,R1*%
X174275000Y-101525000D03*
X174275000Y-91365002D03*
%TD*%
D13*
%TO.C,J8*%
X141295001Y-89200000D03*
D14*
X143835001Y-89200000D03*
X146375000Y-89200000D03*
%TD*%
D16*
%TO.C,J1*%
X168850000Y-96650000D03*
X163050000Y-96650000D03*
X168350000Y-94650000D03*
X163550000Y-94650000D03*
D17*
X170550000Y-96250000D03*
X161350000Y-96250000D03*
%TD*%
D18*
%TO.C,J11*%
X188525000Y-89675000D03*
D19*
X188525000Y-91675000D03*
X188525000Y-93675000D03*
X188525000Y-95675000D03*
X188525000Y-97675000D03*
X188525000Y-99675000D03*
X188525000Y-101675000D03*
X188525000Y-103675000D03*
%TD*%
D20*
%TO.C,J13*%
X164736600Y-109444600D03*
D12*
X168902200Y-104974200D03*
X167276600Y-108581000D03*
D11*
X164736600Y-104364601D03*
D12*
X160825000Y-105025000D03*
X162196600Y-108581000D03*
%TD*%
D21*
%TO.C,J6*%
X181225000Y-103200000D03*
X181225000Y-92900000D03*
D22*
X179625000Y-98050000D03*
%TD*%
D21*
%TO.C,J3*%
X128000000Y-103250000D03*
X128000000Y-92950000D03*
D22*
X126400000Y-98100000D03*
%TD*%
D13*
%TO.C,J10*%
X180785000Y-89340000D03*
D14*
X178245000Y-89340000D03*
%TD*%
D21*
%TO.C,J5*%
X152000000Y-103250000D03*
X152000000Y-92950000D03*
D22*
X150400000Y-98100000D03*
%TD*%
D13*
%TO.C,J9*%
X153882501Y-89200000D03*
D14*
X156422501Y-89200000D03*
X158962500Y-89200000D03*
%TD*%
D21*
%TO.C,J4*%
X140000000Y-103250000D03*
X140000000Y-92950000D03*
D22*
X138400000Y-98100000D03*
%TD*%
D23*
%TO.C,JP4*%
X137287000Y-91638602D03*
D24*
X137287000Y-92938600D03*
%TD*%
D25*
%TO.C,J2*%
X169363607Y-119150856D03*
D26*
X164657107Y-123857356D03*
D25*
X159950607Y-119150856D03*
D27*
X167980231Y-122473980D03*
D28*
X161333983Y-122473980D03*
D29*
X164657107Y-116980856D03*
D30*
X168853711Y-115443550D03*
D31*
X160460503Y-115443550D03*
%TD*%
D32*
%TO.C,JP3*%
X157962600Y-96113600D03*
D33*
X157962600Y-94813602D03*
%TD*%
D34*
%TO.C,JP5*%
X176550000Y-93200000D03*
D35*
X176550000Y-94500000D03*
D36*
X176550000Y-95800000D03*
%TD*%
D23*
%TO.C,JP2*%
X169475000Y-100475001D03*
D24*
X169475000Y-101774999D03*
%TD*%
M02*
