M48
; DRILL file {KiCad 9.0.4} date 2025-10-08T09:42:27-0400
; FORMAT={-:-/ absolute / inch / decimal}
; #@! TF.CreationDate,2025-10-08T09:42:27-04:00
; #@! TF.GenerationSoftware,Kicad,Pcbnew,9.0.4
; #@! TF.FileFunction,Plated,1,2,PTH
FMAT,2
INCH
; #@! TA.AperFunction,Plated,PTH,ViaDrill
T1C0.0118
; #@! TA.AperFunction,Plated,PTH,ComponentDrill
T2C0.0236
; #@! TA.AperFunction,Plated,PTH,ComponentDrill
T3C0.0315
; #@! TA.AperFunction,Plated,PTH,ComponentDrill
T4C0.0350
; #@! TA.AperFunction,Plated,PTH,ComponentDrill
T5C0.0394
; #@! TA.AperFunction,Plated,PTH,ComponentDrill
T6C0.0472
; #@! TA.AperFunction,Plated,PTH,ComponentDrill
T7C0.0630
; #@! TA.AperFunction,Plated,PTH,ComponentDrill
T8C0.0669
; #@! TA.AperFunction,Plated,PTH,ComponentDrill
T9C0.0787
%
G90
G05
T1
X6.0344Y-3.9931
X6.0807Y-3.9636
X6.1102Y-3.9331
X6.1526Y-3.747
X6.4886Y-3.5823
X6.7523Y-4.4614
X6.7795Y-3.8278
X6.9419Y-3.5469
X6.9537Y-3.8907
X7.0262Y-3.997
T3
X7.4222Y-3.5305
X7.4222Y-3.6093
X7.4222Y-3.688
X7.4222Y-3.7667
X7.4222Y-3.8455
X7.4222Y-3.9242
X7.4222Y-4.003
X7.4222Y-4.0817
T4
X6.8612Y-3.597
X6.8612Y-3.997
T5
X5.0717Y-3.5108
X5.1717Y-3.5108
X5.2717Y-3.5108
X5.5628Y-3.5118
X5.6628Y-3.5118
X5.7628Y-3.5118
X6.0584Y-3.5118
X6.1584Y-3.5118
X6.2584Y-3.5118
X6.4193Y-3.8051
X6.439Y-3.7264
X6.628Y-3.7264
X6.6476Y-3.8051
X7.0175Y-3.5173
X7.1175Y-3.5173
T6
X6.3524Y-3.7894
X6.7146Y-3.7894
T7
X5.0394Y-3.6594
X5.0394Y-4.065
X5.5118Y-3.6594
X5.5118Y-4.065
X5.9843Y-3.6594
X5.9843Y-4.065
X7.1348Y-3.6575
X7.1348Y-4.063
T8
X4.9764Y-3.8622
X5.4488Y-3.8622
X5.9213Y-3.8622
X7.0719Y-3.8602
T9
X6.3448Y-4.691
X6.3526Y-4.5768
X6.3853Y-4.7882
X6.4826Y-4.6555
X6.4826Y-4.8288
X6.5798Y-4.7882
X6.6125Y-4.5768
X6.6204Y-4.691
T2
G00X5.0297Y-3.763
M15
G01X4.9903Y-3.763
M16
G05
G00X4.9903Y-3.963
M15
G01X5.0297Y-3.963
M16
G05
G00X5.1697Y-3.709
M15
G01X5.1303Y-3.709
M16
G05
G00X5.1323Y-4.027
M15
G01X5.1717Y-4.027
M16
G05
G00X5.176Y-3.8827
M15
G01X5.176Y-3.8433
M16
G05
G00X6.3317Y-4.1152
M15
G01X6.3317Y-4.1545
M16
G05
G00X6.3857Y-4.2552
M15
G01X6.3857Y-4.2945
M16
G05
G00X6.5054Y-4.1088
M15
G01X6.466Y-4.1088
M16
G05
G00X6.5857Y-4.2945
M15
G01X6.5857Y-4.2552
M16
G05
G00X6.6497Y-4.1525
M15
G01X6.6497Y-4.1132
M16
G05
M30
