M48
; DRILL file {KiCad 9.0.4} date 2025-09-13T13:09:17-0400
; FORMAT={-:-/ absolute / inch / decimal}
; #@! TF.CreationDate,2025-09-13T13:09:17-04:00
; #@! TF.GenerationSoftware,Kicad,Pcbnew,9.0.4
; #@! TF.FileFunction,Plated,1,2,PTH
FMAT,2
INCH
; #@! TA.AperFunction,Plated,PTH,ViaDrill
T1C0.0118
; #@! TA.AperFunction,Plated,PTH,ComponentDrill
T2C0.0350
; #@! TA.AperFunction,Plated,PTH,ComponentDrill
T3C0.0394
; #@! TA.AperFunction,Plated,PTH,ComponentDrill
T4C0.0472
; #@! TA.AperFunction,Plated,PTH,ComponentDrill
T5C0.0630
; #@! TA.AperFunction,Plated,PTH,ComponentDrill
T6C0.0669
; #@! TA.AperFunction,Plated,PTH,ComponentDrill
T7C0.0787
%
G90
G05
T1
X6.0157Y-4.1063
X6.5049Y-3.8976
X6.5827Y-3.8583
X6.7205Y-3.8504
X6.763Y-3.8976
T2
X6.7205Y-3.5669
X6.7205Y-3.9669
T3
X5.0441Y-4.1181
X5.1441Y-4.1181
X5.2441Y-4.1181
X5.6323Y-4.1181
X5.7323Y-4.1181
X5.8323Y-4.1181
X6.6765Y-4.1181
X6.7765Y-4.1181
X6.8765Y-4.1181
X6.9829Y-3.7797
X7.0026Y-3.701
X7.1693Y-4.1181
X7.1916Y-3.701
X7.2113Y-3.7797
X7.2693Y-4.1181
T4
X6.916Y-3.764
X7.2782Y-3.764
T5
X5.0029Y-3.5827
X5.0029Y-3.9882
X5.4753Y-3.5827
X5.4753Y-3.9882
X5.9478Y-3.5827
X5.9478Y-3.9882
X6.4202Y-3.5827
X6.4202Y-3.9882
T6
X4.9399Y-3.7854
X5.4124Y-3.7854
X5.8848Y-3.7854
X6.3572Y-3.7854
T7
X6.1643Y-4.5722
X6.1722Y-4.458
X6.2049Y-4.6695
X6.3021Y-4.5368
X6.3021Y-4.71
X6.3994Y-4.6695
X6.432Y-4.458
X6.4399Y-4.5722
M30
