%TF.GenerationSoftware,KiCad,Pcbnew,9.0.4*%
%TF.CreationDate,2025-09-13T13:09:21-04:00*%
%TF.ProjectId,C64-128AVS,4336342d-3132-4384-9156-532e6b696361,rev?*%
%TF.SameCoordinates,Original*%
%TF.FileFunction,Copper,L1,Top*%
%TF.FilePolarity,Positive*%
%FSLAX46Y46*%
G04 Gerber Fmt 4.6, Leading zero omitted, Abs format (unit mm)*
G04 Created by KiCad (PCBNEW 9.0.4) date 2025-09-13 13:09:21*
%MOMM*%
%LPD*%
G01*
G04 APERTURE LIST*
G04 Aperture macros list*
%AMHorizOval*
0 Thick line with rounded ends*
0 $1 width*
0 $2 $3 position (X,Y) of the first rounded end (center of the circle)*
0 $4 $5 position (X,Y) of the second rounded end (center of the circle)*
0 Add line between two ends*
20,1,$1,$2,$3,$4,$5,0*
0 Add two circle primitives to create the rounded ends*
1,1,$1,$2,$3*
1,1,$1,$4,$5*%
G04 Aperture macros list end*
%TA.AperFunction,ComponentPad*%
%ADD10R,1.700000X1.700000*%
%TD*%
%TA.AperFunction,ComponentPad*%
%ADD11C,1.700000*%
%TD*%
%TA.AperFunction,ComponentPad*%
%ADD12C,1.397000*%
%TD*%
%TA.AperFunction,ComponentPad*%
%ADD13C,1.457200*%
%TD*%
%TA.AperFunction,ComponentPad*%
%ADD14C,1.657200*%
%TD*%
%TA.AperFunction,ComponentPad*%
%ADD15C,2.540000*%
%TD*%
%TA.AperFunction,ComponentPad*%
%ADD16C,2.500000*%
%TD*%
%TA.AperFunction,ComponentPad*%
%ADD17O,4.826000X2.413000*%
%TD*%
%TA.AperFunction,ComponentPad*%
%ADD18O,2.413000X4.826000*%
%TD*%
%TA.AperFunction,ComponentPad*%
%ADD19HorizOval,2.413000X0.853124X-0.853124X-0.853124X0.853124X0*%
%TD*%
%TA.AperFunction,ComponentPad*%
%ADD20HorizOval,2.413000X-0.853124X-0.853124X0.853124X0.853124X0*%
%TD*%
%TA.AperFunction,ComponentPad*%
%ADD21O,2.540000X5.080000*%
%TD*%
%TA.AperFunction,ComponentPad*%
%ADD22HorizOval,2.413000X0.896604X0.807306X-0.896604X-0.807306X0*%
%TD*%
%TA.AperFunction,ComponentPad*%
%ADD23HorizOval,2.413000X-0.896604X0.807306X0.896604X-0.807306X0*%
%TD*%
%TA.AperFunction,ViaPad*%
%ADD24C,0.600000*%
%TD*%
%TA.AperFunction,Conductor*%
%ADD25C,0.300000*%
%TD*%
%TA.AperFunction,Conductor*%
%ADD26C,0.304800*%
%TD*%
%TA.AperFunction,Conductor*%
%ADD27C,0.609600*%
%TD*%
%TA.AperFunction,Conductor*%
%ADD28C,0.600000*%
%TD*%
G04 APERTURE END LIST*
D10*
%TO.P,J7,1,Pin_1*%
%TO.N,ExtAudio*%
X128120001Y-104600000D03*
D11*
%TO.P,J7,2,Pin_2*%
%TO.N,AudioIN*%
X130660001Y-104600000D03*
%TO.P,J7,3,Pin_3*%
%TO.N,GND*%
X133200000Y-104600000D03*
%TD*%
D12*
%TO.P,R1,1,1*%
%TO.N,Chroma*%
X170700000Y-90600000D03*
%TO.P,R1,2,2*%
%TO.N,Net-(J9-Pin_3)*%
X170700000Y-100759998D03*
%TD*%
D10*
%TO.P,J8,1,Pin_1*%
%TO.N,AudioL*%
X143060000Y-104600000D03*
D11*
%TO.P,J8,2,Pin_2*%
X145600000Y-104600000D03*
%TO.P,J8,3,Pin_3*%
%TO.N,AudioR*%
X148139999Y-104600000D03*
%TD*%
D13*
%TO.P,J1,1,1*%
%TO.N,GND*%
X183166400Y-96005600D03*
%TO.P,J1,2,2*%
X177366400Y-96005600D03*
%TO.P,J1,3,3*%
%TO.N,Luma*%
X182666400Y-94005600D03*
%TO.P,J1,4,4*%
%TO.N,ChromaFix*%
X177866400Y-94005600D03*
D14*
%TO.P,J1,CS1,CS1*%
%TO.N,unconnected-(J1-PadCS1)*%
X184866400Y-95605600D03*
%TO.P,J1,CS2,CS2*%
%TO.N,unconnected-(J1-PadCS2)*%
X175666400Y-95605600D03*
%TD*%
D15*
%TO.P,J6,R1,R*%
%TO.N,GND*%
X163073750Y-101300000D03*
%TO.P,J6,R2,R*%
X163073750Y-91000000D03*
D16*
%TO.P,J6,T,T*%
%TO.N,Composite*%
X161473750Y-96150000D03*
%TD*%
D15*
%TO.P,J3,R1,R*%
%TO.N,GND*%
X127073750Y-101300000D03*
%TO.P,J3,R2,R*%
X127073750Y-91000000D03*
D16*
%TO.P,J3,T,T*%
%TO.N,ExtAudio*%
X125473750Y-96150000D03*
%TD*%
D11*
%TO.P,J10,2,Pin_2*%
%TO.N,GND*%
X184640000Y-104600000D03*
D10*
%TO.P,J10,1,Pin_1*%
%TO.N,5V*%
X182100000Y-104600000D03*
%TD*%
D15*
%TO.P,J5,R1,R*%
%TO.N,GND*%
X151073750Y-101300000D03*
%TO.P,J5,R2,R*%
X151073750Y-91000000D03*
D16*
%TO.P,J5,T,T*%
%TO.N,AudioR*%
X149473750Y-96150000D03*
%TD*%
D10*
%TO.P,J9,1,Pin_1*%
%TO.N,Chroma*%
X174663049Y-104600000D03*
D11*
%TO.P,J9,2,Pin_2*%
%TO.N,ChromaFix*%
X172123049Y-104600000D03*
%TO.P,J9,3,Pin_3*%
%TO.N,Net-(J9-Pin_3)*%
X169583050Y-104600000D03*
%TD*%
D15*
%TO.P,J4,R1,R*%
%TO.N,GND*%
X139073750Y-101300000D03*
%TO.P,J4,R2,R*%
X139073750Y-91000000D03*
D16*
%TO.P,J4,T,T*%
%TO.N,AudioL*%
X137473750Y-96150000D03*
%TD*%
D17*
%TO.P,J2,1,1*%
%TO.N,Luma*%
X164780250Y-116134400D03*
D18*
%TO.P,J2,2,2*%
%TO.N,GND*%
X160073750Y-120840900D03*
D17*
%TO.P,J2,3,3*%
%TO.N,AudioL*%
X155367250Y-116134400D03*
D19*
%TO.P,J2,4,4*%
%TO.N,Composite*%
X163396874Y-119457524D03*
D20*
%TO.P,J2,5,5*%
%TO.N,AudioIN*%
X156750626Y-119457524D03*
D21*
%TO.P,J2,6,6*%
%TO.N,Chroma*%
X160073750Y-113964400D03*
D22*
%TO.P,J2,7,7*%
%TO.N,AudioR*%
X164270354Y-112427094D03*
D23*
%TO.P,J2,8,8*%
%TO.N,5V*%
X155877146Y-112427094D03*
%TD*%
D24*
%TO.N,AudioL*%
X152800000Y-104300000D03*
%TO.N,Luma*%
X167200000Y-98000000D03*
%TO.N,Chroma*%
X165223800Y-99000000D03*
X171780200Y-99000000D03*
%TO.N,5V*%
X170700000Y-97800000D03*
%TD*%
D25*
%TO.N,Chroma*%
X165223800Y-99000000D02*
X171780200Y-99000000D01*
D26*
%TO.N,Luma*%
X181200000Y-92500000D02*
X182666400Y-93966400D01*
X182666400Y-93966400D02*
X182666400Y-94005600D01*
X172700000Y-92500000D02*
X181200000Y-92500000D01*
X167200000Y-98000000D02*
X172700000Y-92500000D01*
D27*
%TO.N,GND*%
X184640000Y-99940000D02*
X183166400Y-98466400D01*
X184640000Y-104902000D02*
X184640000Y-99940000D01*
X183166400Y-98466400D02*
X183166400Y-96005600D01*
D28*
%TO.N,5V*%
X176700000Y-97800000D02*
X182100000Y-103200000D01*
X170700000Y-97800000D02*
X176700000Y-97800000D01*
X182100000Y-103200000D02*
X182100000Y-104600000D01*
D25*
%TO.N,AudioL*%
X147000000Y-103200000D02*
X145600000Y-104600000D01*
X151700000Y-103200000D02*
X147000000Y-103200000D01*
X152800000Y-104300000D02*
X151700000Y-103200000D01*
%TO.N,AudioR*%
X163373750Y-109144750D02*
X163373750Y-113234400D01*
X159229000Y-105000000D02*
X163373750Y-109144750D01*
X151400000Y-104600000D02*
X151800000Y-105000000D01*
X151800000Y-105000000D02*
X159229000Y-105000000D01*
X148139999Y-104600000D02*
X151400000Y-104600000D01*
%TO.N,Chroma*%
X172540150Y-99000000D02*
X174663049Y-101122899D01*
X174663049Y-101122899D02*
X174663049Y-104929350D01*
X171780200Y-99000000D02*
X172540150Y-99000000D01*
%TO.N,AudioL*%
X145600000Y-104600000D02*
X143060000Y-104600000D01*
%TO.N,AudioIN*%
X152476200Y-107076200D02*
X151400000Y-106000000D01*
X151400000Y-106000000D02*
X132060001Y-106000000D01*
X152476200Y-117312050D02*
X152476200Y-107076200D01*
X132060001Y-106000000D02*
X130660001Y-104600000D01*
X153768550Y-118604400D02*
X152476200Y-117312050D01*
X157603750Y-118604400D02*
X153768550Y-118604400D01*
D27*
%TO.N,GND*%
X139073750Y-101300000D02*
X151073750Y-101300000D01*
X133500000Y-101300000D02*
X133200000Y-101600000D01*
X133500000Y-101300000D02*
X135356600Y-101300000D01*
X133200000Y-101600000D02*
X133200000Y-104978200D01*
D25*
%TO.N,AudioL*%
X137473750Y-96150000D02*
X137482950Y-96150000D01*
D27*
%TO.N,GND*%
X183166400Y-96005600D02*
X177366400Y-96005600D01*
D25*
%TO.N,AudioR*%
X149473750Y-96150000D02*
X149435450Y-96150000D01*
D27*
%TO.N,GND*%
X163073750Y-101319200D02*
X163073750Y-101300000D01*
X168100000Y-107724200D02*
X163073750Y-102697950D01*
X165206250Y-122705650D02*
X168100000Y-119811900D01*
X160073750Y-120490000D02*
X162289400Y-122705650D01*
X168100000Y-119811900D02*
X168100000Y-107724200D01*
X160073750Y-119634400D02*
X160073750Y-120490000D01*
X162289400Y-122705650D02*
X165206250Y-122705650D01*
X132879350Y-101300000D02*
X133500000Y-101300000D01*
X163073750Y-93295000D02*
X163073750Y-91000000D01*
X160073750Y-119634400D02*
X160073750Y-121286438D01*
D28*
X151073750Y-91000000D02*
X151073750Y-93078400D01*
D27*
X163073750Y-98947500D02*
X163900000Y-98121250D01*
D28*
X151942800Y-97884450D02*
X151073750Y-98753500D01*
X151942800Y-93947450D02*
X151942800Y-97884450D01*
D27*
X135356600Y-101300000D02*
X139073750Y-101300000D01*
X163073750Y-101300000D02*
X151073750Y-101300000D01*
X139073750Y-91000000D02*
X145872650Y-91000000D01*
X139073750Y-101300000D02*
X139073750Y-102147500D01*
X163094450Y-91000000D02*
X163073750Y-91000000D01*
X125477050Y-91000000D02*
X122936000Y-93541050D01*
X155772650Y-91000000D02*
X163073750Y-91000000D01*
X122936000Y-98697250D02*
X125538750Y-101300000D01*
X163900000Y-94121250D02*
X163073750Y-93295000D01*
X139073750Y-91000000D02*
X127073750Y-91000000D01*
X163900000Y-98121250D02*
X163900000Y-94121250D01*
X145872650Y-91000000D02*
X155772650Y-91000000D01*
D28*
X151073750Y-93078400D02*
X151942800Y-93947450D01*
D27*
X127073750Y-91000000D02*
X125477050Y-91000000D01*
X127073750Y-101300000D02*
X132879350Y-101300000D01*
D28*
X151073750Y-98753500D02*
X151073750Y-101300000D01*
D27*
X125538750Y-101300000D02*
X127073750Y-101300000D01*
X122936000Y-93541050D02*
X122936000Y-98697250D01*
X163073750Y-101300000D02*
X163073750Y-98947500D01*
X160073750Y-121286438D02*
G75*
G03*
X160366672Y-121993515I999950J38D01*
G01*
%TD*%
M02*
