%TF.GenerationSoftware,KiCad,Pcbnew,9.0.4*%
%TF.CreationDate,2025-09-13T13:09:21-04:00*%
%TF.ProjectId,C64-128AVS,4336342d-3132-4384-9156-532e6b696361,rev?*%
%TF.SameCoordinates,Original*%
%TF.FileFunction,Legend,Bot*%
%TF.FilePolarity,Positive*%
%FSLAX46Y46*%
G04 Gerber Fmt 4.6, Leading zero omitted, Abs format (unit mm)*
G04 Created by KiCad (PCBNEW 9.0.4) date 2025-09-13 13:09:21*
%MOMM*%
%LPD*%
G01*
G04 APERTURE LIST*
%ADD10C,0.100000*%
%ADD11C,0.101600*%
%ADD12C,0.093472*%
%ADD13C,0.081280*%
%ADD14C,0.127000*%
G04 APERTURE END LIST*
D10*
X120851390Y-104633333D02*
X120803771Y-104490476D01*
X120803771Y-104490476D02*
X120756152Y-104442857D01*
X120756152Y-104442857D02*
X120660914Y-104395238D01*
X120660914Y-104395238D02*
X120518057Y-104395238D01*
X120518057Y-104395238D02*
X120422819Y-104442857D01*
X120422819Y-104442857D02*
X120375200Y-104490476D01*
X120375200Y-104490476D02*
X120327580Y-104585714D01*
X120327580Y-104585714D02*
X120327580Y-104966666D01*
X120327580Y-104966666D02*
X121327580Y-104966666D01*
X121327580Y-104966666D02*
X121327580Y-104633333D01*
X121327580Y-104633333D02*
X121279961Y-104538095D01*
X121279961Y-104538095D02*
X121232342Y-104490476D01*
X121232342Y-104490476D02*
X121137104Y-104442857D01*
X121137104Y-104442857D02*
X121041866Y-104442857D01*
X121041866Y-104442857D02*
X120946628Y-104490476D01*
X120946628Y-104490476D02*
X120899009Y-104538095D01*
X120899009Y-104538095D02*
X120851390Y-104633333D01*
X120851390Y-104633333D02*
X120851390Y-104966666D01*
X121327580Y-103776190D02*
X121327580Y-103585714D01*
X121327580Y-103585714D02*
X121279961Y-103490476D01*
X121279961Y-103490476D02*
X121184723Y-103395238D01*
X121184723Y-103395238D02*
X120994247Y-103347619D01*
X120994247Y-103347619D02*
X120660914Y-103347619D01*
X120660914Y-103347619D02*
X120470438Y-103395238D01*
X120470438Y-103395238D02*
X120375200Y-103490476D01*
X120375200Y-103490476D02*
X120327580Y-103585714D01*
X120327580Y-103585714D02*
X120327580Y-103776190D01*
X120327580Y-103776190D02*
X120375200Y-103871428D01*
X120375200Y-103871428D02*
X120470438Y-103966666D01*
X120470438Y-103966666D02*
X120660914Y-104014285D01*
X120660914Y-104014285D02*
X120994247Y-104014285D01*
X120994247Y-104014285D02*
X121184723Y-103966666D01*
X121184723Y-103966666D02*
X121279961Y-103871428D01*
X121279961Y-103871428D02*
X121327580Y-103776190D01*
X121327580Y-103061904D02*
X121327580Y-102490476D01*
X120327580Y-102776190D02*
X121327580Y-102776190D01*
X147890476Y-102824800D02*
X147747619Y-102872419D01*
X147747619Y-102872419D02*
X147509524Y-102872419D01*
X147509524Y-102872419D02*
X147414286Y-102824800D01*
X147414286Y-102824800D02*
X147366667Y-102777180D01*
X147366667Y-102777180D02*
X147319048Y-102681942D01*
X147319048Y-102681942D02*
X147319048Y-102586704D01*
X147319048Y-102586704D02*
X147366667Y-102491466D01*
X147366667Y-102491466D02*
X147414286Y-102443847D01*
X147414286Y-102443847D02*
X147509524Y-102396228D01*
X147509524Y-102396228D02*
X147700000Y-102348609D01*
X147700000Y-102348609D02*
X147795238Y-102300990D01*
X147795238Y-102300990D02*
X147842857Y-102253371D01*
X147842857Y-102253371D02*
X147890476Y-102158133D01*
X147890476Y-102158133D02*
X147890476Y-102062895D01*
X147890476Y-102062895D02*
X147842857Y-101967657D01*
X147842857Y-101967657D02*
X147795238Y-101920038D01*
X147795238Y-101920038D02*
X147700000Y-101872419D01*
X147700000Y-101872419D02*
X147461905Y-101872419D01*
X147461905Y-101872419D02*
X147319048Y-101920038D01*
X147033333Y-102205752D02*
X146652381Y-102205752D01*
X146890476Y-101872419D02*
X146890476Y-102729561D01*
X146890476Y-102729561D02*
X146842857Y-102824800D01*
X146842857Y-102824800D02*
X146747619Y-102872419D01*
X146747619Y-102872419D02*
X146652381Y-102872419D01*
X145938095Y-102824800D02*
X146033333Y-102872419D01*
X146033333Y-102872419D02*
X146223809Y-102872419D01*
X146223809Y-102872419D02*
X146319047Y-102824800D01*
X146319047Y-102824800D02*
X146366666Y-102729561D01*
X146366666Y-102729561D02*
X146366666Y-102348609D01*
X146366666Y-102348609D02*
X146319047Y-102253371D01*
X146319047Y-102253371D02*
X146223809Y-102205752D01*
X146223809Y-102205752D02*
X146033333Y-102205752D01*
X146033333Y-102205752D02*
X145938095Y-102253371D01*
X145938095Y-102253371D02*
X145890476Y-102348609D01*
X145890476Y-102348609D02*
X145890476Y-102443847D01*
X145890476Y-102443847D02*
X146366666Y-102539085D01*
X145461904Y-102872419D02*
X145461904Y-102205752D01*
X145461904Y-102396228D02*
X145414285Y-102300990D01*
X145414285Y-102300990D02*
X145366666Y-102253371D01*
X145366666Y-102253371D02*
X145271428Y-102205752D01*
X145271428Y-102205752D02*
X145176190Y-102205752D01*
X144461904Y-102824800D02*
X144557142Y-102872419D01*
X144557142Y-102872419D02*
X144747618Y-102872419D01*
X144747618Y-102872419D02*
X144842856Y-102824800D01*
X144842856Y-102824800D02*
X144890475Y-102729561D01*
X144890475Y-102729561D02*
X144890475Y-102348609D01*
X144890475Y-102348609D02*
X144842856Y-102253371D01*
X144842856Y-102253371D02*
X144747618Y-102205752D01*
X144747618Y-102205752D02*
X144557142Y-102205752D01*
X144557142Y-102205752D02*
X144461904Y-102253371D01*
X144461904Y-102253371D02*
X144414285Y-102348609D01*
X144414285Y-102348609D02*
X144414285Y-102443847D01*
X144414285Y-102443847D02*
X144890475Y-102539085D01*
X143842856Y-102872419D02*
X143938094Y-102824800D01*
X143938094Y-102824800D02*
X143985713Y-102777180D01*
X143985713Y-102777180D02*
X144033332Y-102681942D01*
X144033332Y-102681942D02*
X144033332Y-102396228D01*
X144033332Y-102396228D02*
X143985713Y-102300990D01*
X143985713Y-102300990D02*
X143938094Y-102253371D01*
X143938094Y-102253371D02*
X143842856Y-102205752D01*
X143842856Y-102205752D02*
X143699999Y-102205752D01*
X143699999Y-102205752D02*
X143604761Y-102253371D01*
X143604761Y-102253371D02*
X143557142Y-102300990D01*
X143557142Y-102300990D02*
X143509523Y-102396228D01*
X143509523Y-102396228D02*
X143509523Y-102681942D01*
X143509523Y-102681942D02*
X143557142Y-102777180D01*
X143557142Y-102777180D02*
X143604761Y-102824800D01*
X143604761Y-102824800D02*
X143699999Y-102872419D01*
X143699999Y-102872419D02*
X143842856Y-102872419D01*
D11*
X139283326Y-93835381D02*
X140451726Y-94113571D01*
X140451726Y-94113571D02*
X139617154Y-94336124D01*
X139617154Y-94336124D02*
X140451726Y-94558676D01*
X140451726Y-94558676D02*
X139283326Y-94836867D01*
X140451726Y-95281971D02*
X139283326Y-95281971D01*
X139839707Y-95281971D02*
X139839707Y-95949628D01*
X140451726Y-95949628D02*
X139283326Y-95949628D01*
X140451726Y-96506009D02*
X139283326Y-96506009D01*
X139283326Y-96895476D02*
X139283326Y-97563133D01*
X140451726Y-97229304D02*
X139283326Y-97229304D01*
X139839707Y-97952600D02*
X139839707Y-98342067D01*
X140451726Y-98508981D02*
X140451726Y-97952600D01*
X140451726Y-97952600D02*
X139283326Y-97952600D01*
X139283326Y-97952600D02*
X139283326Y-98508981D01*
D10*
X186847620Y-89272419D02*
X186847620Y-88272419D01*
X186847620Y-88272419D02*
X186609525Y-88272419D01*
X186609525Y-88272419D02*
X186466668Y-88320038D01*
X186466668Y-88320038D02*
X186371430Y-88415276D01*
X186371430Y-88415276D02*
X186323811Y-88510514D01*
X186323811Y-88510514D02*
X186276192Y-88700990D01*
X186276192Y-88700990D02*
X186276192Y-88843847D01*
X186276192Y-88843847D02*
X186323811Y-89034323D01*
X186323811Y-89034323D02*
X186371430Y-89129561D01*
X186371430Y-89129561D02*
X186466668Y-89224800D01*
X186466668Y-89224800D02*
X186609525Y-89272419D01*
X186609525Y-89272419D02*
X186847620Y-89272419D01*
X185466668Y-89224800D02*
X185561906Y-89272419D01*
X185561906Y-89272419D02*
X185752382Y-89272419D01*
X185752382Y-89272419D02*
X185847620Y-89224800D01*
X185847620Y-89224800D02*
X185895239Y-89129561D01*
X185895239Y-89129561D02*
X185895239Y-88748609D01*
X185895239Y-88748609D02*
X185847620Y-88653371D01*
X185847620Y-88653371D02*
X185752382Y-88605752D01*
X185752382Y-88605752D02*
X185561906Y-88605752D01*
X185561906Y-88605752D02*
X185466668Y-88653371D01*
X185466668Y-88653371D02*
X185419049Y-88748609D01*
X185419049Y-88748609D02*
X185419049Y-88843847D01*
X185419049Y-88843847D02*
X185895239Y-88939085D01*
X185038096Y-89224800D02*
X184942858Y-89272419D01*
X184942858Y-89272419D02*
X184752382Y-89272419D01*
X184752382Y-89272419D02*
X184657144Y-89224800D01*
X184657144Y-89224800D02*
X184609525Y-89129561D01*
X184609525Y-89129561D02*
X184609525Y-89081942D01*
X184609525Y-89081942D02*
X184657144Y-88986704D01*
X184657144Y-88986704D02*
X184752382Y-88939085D01*
X184752382Y-88939085D02*
X184895239Y-88939085D01*
X184895239Y-88939085D02*
X184990477Y-88891466D01*
X184990477Y-88891466D02*
X185038096Y-88796228D01*
X185038096Y-88796228D02*
X185038096Y-88748609D01*
X185038096Y-88748609D02*
X184990477Y-88653371D01*
X184990477Y-88653371D02*
X184895239Y-88605752D01*
X184895239Y-88605752D02*
X184752382Y-88605752D01*
X184752382Y-88605752D02*
X184657144Y-88653371D01*
X184180953Y-89272419D02*
X184180953Y-88605752D01*
X184180953Y-88272419D02*
X184228572Y-88320038D01*
X184228572Y-88320038D02*
X184180953Y-88367657D01*
X184180953Y-88367657D02*
X184133334Y-88320038D01*
X184133334Y-88320038D02*
X184180953Y-88272419D01*
X184180953Y-88272419D02*
X184180953Y-88367657D01*
X183276192Y-88605752D02*
X183276192Y-89415276D01*
X183276192Y-89415276D02*
X183323811Y-89510514D01*
X183323811Y-89510514D02*
X183371430Y-89558133D01*
X183371430Y-89558133D02*
X183466668Y-89605752D01*
X183466668Y-89605752D02*
X183609525Y-89605752D01*
X183609525Y-89605752D02*
X183704763Y-89558133D01*
X183276192Y-89224800D02*
X183371430Y-89272419D01*
X183371430Y-89272419D02*
X183561906Y-89272419D01*
X183561906Y-89272419D02*
X183657144Y-89224800D01*
X183657144Y-89224800D02*
X183704763Y-89177180D01*
X183704763Y-89177180D02*
X183752382Y-89081942D01*
X183752382Y-89081942D02*
X183752382Y-88796228D01*
X183752382Y-88796228D02*
X183704763Y-88700990D01*
X183704763Y-88700990D02*
X183657144Y-88653371D01*
X183657144Y-88653371D02*
X183561906Y-88605752D01*
X183561906Y-88605752D02*
X183371430Y-88605752D01*
X183371430Y-88605752D02*
X183276192Y-88653371D01*
X182800001Y-88605752D02*
X182800001Y-89272419D01*
X182800001Y-88700990D02*
X182752382Y-88653371D01*
X182752382Y-88653371D02*
X182657144Y-88605752D01*
X182657144Y-88605752D02*
X182514287Y-88605752D01*
X182514287Y-88605752D02*
X182419049Y-88653371D01*
X182419049Y-88653371D02*
X182371430Y-88748609D01*
X182371430Y-88748609D02*
X182371430Y-89272419D01*
X181133334Y-89272419D02*
X181133334Y-88272419D01*
X181133334Y-88653371D02*
X181038096Y-88605752D01*
X181038096Y-88605752D02*
X180847620Y-88605752D01*
X180847620Y-88605752D02*
X180752382Y-88653371D01*
X180752382Y-88653371D02*
X180704763Y-88700990D01*
X180704763Y-88700990D02*
X180657144Y-88796228D01*
X180657144Y-88796228D02*
X180657144Y-89081942D01*
X180657144Y-89081942D02*
X180704763Y-89177180D01*
X180704763Y-89177180D02*
X180752382Y-89224800D01*
X180752382Y-89224800D02*
X180847620Y-89272419D01*
X180847620Y-89272419D02*
X181038096Y-89272419D01*
X181038096Y-89272419D02*
X181133334Y-89224800D01*
X180323810Y-88605752D02*
X180085715Y-89272419D01*
X179847620Y-88605752D02*
X180085715Y-89272419D01*
X180085715Y-89272419D02*
X180180953Y-89510514D01*
X180180953Y-89510514D02*
X180228572Y-89558133D01*
X180228572Y-89558133D02*
X180323810Y-89605752D01*
X179466667Y-89177180D02*
X179419048Y-89224800D01*
X179419048Y-89224800D02*
X179466667Y-89272419D01*
X179466667Y-89272419D02*
X179514286Y-89224800D01*
X179514286Y-89224800D02*
X179466667Y-89177180D01*
X179466667Y-89177180D02*
X179466667Y-89272419D01*
X179466667Y-88653371D02*
X179419048Y-88700990D01*
X179419048Y-88700990D02*
X179466667Y-88748609D01*
X179466667Y-88748609D02*
X179514286Y-88700990D01*
X179514286Y-88700990D02*
X179466667Y-88653371D01*
X179466667Y-88653371D02*
X179466667Y-88748609D01*
X178276191Y-89224800D02*
X178133334Y-89272419D01*
X178133334Y-89272419D02*
X177895239Y-89272419D01*
X177895239Y-89272419D02*
X177800001Y-89224800D01*
X177800001Y-89224800D02*
X177752382Y-89177180D01*
X177752382Y-89177180D02*
X177704763Y-89081942D01*
X177704763Y-89081942D02*
X177704763Y-88986704D01*
X177704763Y-88986704D02*
X177752382Y-88891466D01*
X177752382Y-88891466D02*
X177800001Y-88843847D01*
X177800001Y-88843847D02*
X177895239Y-88796228D01*
X177895239Y-88796228D02*
X178085715Y-88748609D01*
X178085715Y-88748609D02*
X178180953Y-88700990D01*
X178180953Y-88700990D02*
X178228572Y-88653371D01*
X178228572Y-88653371D02*
X178276191Y-88558133D01*
X178276191Y-88558133D02*
X178276191Y-88462895D01*
X178276191Y-88462895D02*
X178228572Y-88367657D01*
X178228572Y-88367657D02*
X178180953Y-88320038D01*
X178180953Y-88320038D02*
X178085715Y-88272419D01*
X178085715Y-88272419D02*
X177847620Y-88272419D01*
X177847620Y-88272419D02*
X177704763Y-88320038D01*
X177371429Y-88605752D02*
X177133334Y-89272419D01*
X177133334Y-89272419D02*
X176895239Y-88605752D01*
X176133334Y-89224800D02*
X176228572Y-89272419D01*
X176228572Y-89272419D02*
X176419048Y-89272419D01*
X176419048Y-89272419D02*
X176514286Y-89224800D01*
X176514286Y-89224800D02*
X176561905Y-89129561D01*
X176561905Y-89129561D02*
X176561905Y-88748609D01*
X176561905Y-88748609D02*
X176514286Y-88653371D01*
X176514286Y-88653371D02*
X176419048Y-88605752D01*
X176419048Y-88605752D02*
X176228572Y-88605752D01*
X176228572Y-88605752D02*
X176133334Y-88653371D01*
X176133334Y-88653371D02*
X176085715Y-88748609D01*
X176085715Y-88748609D02*
X176085715Y-88843847D01*
X176085715Y-88843847D02*
X176561905Y-88939085D01*
X175657143Y-88605752D02*
X175657143Y-89272419D01*
X175657143Y-88700990D02*
X175609524Y-88653371D01*
X175609524Y-88653371D02*
X175514286Y-88605752D01*
X175514286Y-88605752D02*
X175371429Y-88605752D01*
X175371429Y-88605752D02*
X175276191Y-88653371D01*
X175276191Y-88653371D02*
X175228572Y-88748609D01*
X175228572Y-88748609D02*
X175228572Y-89272419D01*
X173990476Y-89272419D02*
X173990476Y-88272419D01*
X173990476Y-88272419D02*
X173609524Y-88272419D01*
X173609524Y-88272419D02*
X173514286Y-88320038D01*
X173514286Y-88320038D02*
X173466667Y-88367657D01*
X173466667Y-88367657D02*
X173419048Y-88462895D01*
X173419048Y-88462895D02*
X173419048Y-88605752D01*
X173419048Y-88605752D02*
X173466667Y-88700990D01*
X173466667Y-88700990D02*
X173514286Y-88748609D01*
X173514286Y-88748609D02*
X173609524Y-88796228D01*
X173609524Y-88796228D02*
X173990476Y-88796228D01*
X172609524Y-89224800D02*
X172704762Y-89272419D01*
X172704762Y-89272419D02*
X172895238Y-89272419D01*
X172895238Y-89272419D02*
X172990476Y-89224800D01*
X172990476Y-89224800D02*
X173038095Y-89129561D01*
X173038095Y-89129561D02*
X173038095Y-88748609D01*
X173038095Y-88748609D02*
X172990476Y-88653371D01*
X172990476Y-88653371D02*
X172895238Y-88605752D01*
X172895238Y-88605752D02*
X172704762Y-88605752D01*
X172704762Y-88605752D02*
X172609524Y-88653371D01*
X172609524Y-88653371D02*
X172561905Y-88748609D01*
X172561905Y-88748609D02*
X172561905Y-88843847D01*
X172561905Y-88843847D02*
X173038095Y-88939085D01*
X172276190Y-88605752D02*
X171895238Y-88605752D01*
X172133333Y-88272419D02*
X172133333Y-89129561D01*
X172133333Y-89129561D02*
X172085714Y-89224800D01*
X172085714Y-89224800D02*
X171990476Y-89272419D01*
X171990476Y-89272419D02*
X171895238Y-89272419D01*
X171180952Y-89224800D02*
X171276190Y-89272419D01*
X171276190Y-89272419D02*
X171466666Y-89272419D01*
X171466666Y-89272419D02*
X171561904Y-89224800D01*
X171561904Y-89224800D02*
X171609523Y-89129561D01*
X171609523Y-89129561D02*
X171609523Y-88748609D01*
X171609523Y-88748609D02*
X171561904Y-88653371D01*
X171561904Y-88653371D02*
X171466666Y-88605752D01*
X171466666Y-88605752D02*
X171276190Y-88605752D01*
X171276190Y-88605752D02*
X171180952Y-88653371D01*
X171180952Y-88653371D02*
X171133333Y-88748609D01*
X171133333Y-88748609D02*
X171133333Y-88843847D01*
X171133333Y-88843847D02*
X171609523Y-88939085D01*
X170704761Y-89272419D02*
X170704761Y-88605752D01*
X170704761Y-88796228D02*
X170657142Y-88700990D01*
X170657142Y-88700990D02*
X170609523Y-88653371D01*
X170609523Y-88653371D02*
X170514285Y-88605752D01*
X170514285Y-88605752D02*
X170419047Y-88605752D01*
X170133332Y-89224800D02*
X170038094Y-89272419D01*
X170038094Y-89272419D02*
X169847618Y-89272419D01*
X169847618Y-89272419D02*
X169752380Y-89224800D01*
X169752380Y-89224800D02*
X169704761Y-89129561D01*
X169704761Y-89129561D02*
X169704761Y-89081942D01*
X169704761Y-89081942D02*
X169752380Y-88986704D01*
X169752380Y-88986704D02*
X169847618Y-88939085D01*
X169847618Y-88939085D02*
X169990475Y-88939085D01*
X169990475Y-88939085D02*
X170085713Y-88891466D01*
X170085713Y-88891466D02*
X170133332Y-88796228D01*
X170133332Y-88796228D02*
X170133332Y-88748609D01*
X170133332Y-88748609D02*
X170085713Y-88653371D01*
X170085713Y-88653371D02*
X169990475Y-88605752D01*
X169990475Y-88605752D02*
X169847618Y-88605752D01*
X169847618Y-88605752D02*
X169752380Y-88653371D01*
X168895237Y-89224800D02*
X168990475Y-89272419D01*
X168990475Y-89272419D02*
X169180951Y-89272419D01*
X169180951Y-89272419D02*
X169276189Y-89224800D01*
X169276189Y-89224800D02*
X169323808Y-89129561D01*
X169323808Y-89129561D02*
X169323808Y-88748609D01*
X169323808Y-88748609D02*
X169276189Y-88653371D01*
X169276189Y-88653371D02*
X169180951Y-88605752D01*
X169180951Y-88605752D02*
X168990475Y-88605752D01*
X168990475Y-88605752D02*
X168895237Y-88653371D01*
X168895237Y-88653371D02*
X168847618Y-88748609D01*
X168847618Y-88748609D02*
X168847618Y-88843847D01*
X168847618Y-88843847D02*
X169323808Y-88939085D01*
X168419046Y-88605752D02*
X168419046Y-89272419D01*
X168419046Y-88700990D02*
X168371427Y-88653371D01*
X168371427Y-88653371D02*
X168276189Y-88605752D01*
X168276189Y-88605752D02*
X168133332Y-88605752D01*
X168133332Y-88605752D02*
X168038094Y-88653371D01*
X168038094Y-88653371D02*
X167990475Y-88748609D01*
X167990475Y-88748609D02*
X167990475Y-89272419D01*
X167466665Y-89224800D02*
X167466665Y-89272419D01*
X167466665Y-89272419D02*
X167514284Y-89367657D01*
X167514284Y-89367657D02*
X167561903Y-89415276D01*
X166276189Y-89272419D02*
X166276189Y-88605752D01*
X166276189Y-88700990D02*
X166228570Y-88653371D01*
X166228570Y-88653371D02*
X166133332Y-88605752D01*
X166133332Y-88605752D02*
X165990475Y-88605752D01*
X165990475Y-88605752D02*
X165895237Y-88653371D01*
X165895237Y-88653371D02*
X165847618Y-88748609D01*
X165847618Y-88748609D02*
X165847618Y-89272419D01*
X165847618Y-88748609D02*
X165799999Y-88653371D01*
X165799999Y-88653371D02*
X165704761Y-88605752D01*
X165704761Y-88605752D02*
X165561904Y-88605752D01*
X165561904Y-88605752D02*
X165466665Y-88653371D01*
X165466665Y-88653371D02*
X165419046Y-88748609D01*
X165419046Y-88748609D02*
X165419046Y-89272419D01*
X164799999Y-89272419D02*
X164895237Y-89224800D01*
X164895237Y-89224800D02*
X164942856Y-89177180D01*
X164942856Y-89177180D02*
X164990475Y-89081942D01*
X164990475Y-89081942D02*
X164990475Y-88796228D01*
X164990475Y-88796228D02*
X164942856Y-88700990D01*
X164942856Y-88700990D02*
X164895237Y-88653371D01*
X164895237Y-88653371D02*
X164799999Y-88605752D01*
X164799999Y-88605752D02*
X164657142Y-88605752D01*
X164657142Y-88605752D02*
X164561904Y-88653371D01*
X164561904Y-88653371D02*
X164514285Y-88700990D01*
X164514285Y-88700990D02*
X164466666Y-88796228D01*
X164466666Y-88796228D02*
X164466666Y-89081942D01*
X164466666Y-89081942D02*
X164514285Y-89177180D01*
X164514285Y-89177180D02*
X164561904Y-89224800D01*
X164561904Y-89224800D02*
X164657142Y-89272419D01*
X164657142Y-89272419D02*
X164799999Y-89272419D01*
X163609523Y-89272419D02*
X163609523Y-88272419D01*
X163609523Y-89224800D02*
X163704761Y-89272419D01*
X163704761Y-89272419D02*
X163895237Y-89272419D01*
X163895237Y-89272419D02*
X163990475Y-89224800D01*
X163990475Y-89224800D02*
X164038094Y-89177180D01*
X164038094Y-89177180D02*
X164085713Y-89081942D01*
X164085713Y-89081942D02*
X164085713Y-88796228D01*
X164085713Y-88796228D02*
X164038094Y-88700990D01*
X164038094Y-88700990D02*
X163990475Y-88653371D01*
X163990475Y-88653371D02*
X163895237Y-88605752D01*
X163895237Y-88605752D02*
X163704761Y-88605752D01*
X163704761Y-88605752D02*
X163609523Y-88653371D01*
X163133332Y-89272419D02*
X163133332Y-88605752D01*
X163133332Y-88272419D02*
X163180951Y-88320038D01*
X163180951Y-88320038D02*
X163133332Y-88367657D01*
X163133332Y-88367657D02*
X163085713Y-88320038D01*
X163085713Y-88320038D02*
X163133332Y-88272419D01*
X163133332Y-88272419D02*
X163133332Y-88367657D01*
X162799999Y-88605752D02*
X162419047Y-88605752D01*
X162657142Y-89272419D02*
X162657142Y-88415276D01*
X162657142Y-88415276D02*
X162609523Y-88320038D01*
X162609523Y-88320038D02*
X162514285Y-88272419D01*
X162514285Y-88272419D02*
X162419047Y-88272419D01*
X162085713Y-89272419D02*
X162085713Y-88605752D01*
X162085713Y-88272419D02*
X162133332Y-88320038D01*
X162133332Y-88320038D02*
X162085713Y-88367657D01*
X162085713Y-88367657D02*
X162038094Y-88320038D01*
X162038094Y-88320038D02*
X162085713Y-88272419D01*
X162085713Y-88272419D02*
X162085713Y-88367657D01*
X161228571Y-89224800D02*
X161323809Y-89272419D01*
X161323809Y-89272419D02*
X161514285Y-89272419D01*
X161514285Y-89272419D02*
X161609523Y-89224800D01*
X161609523Y-89224800D02*
X161657142Y-89129561D01*
X161657142Y-89129561D02*
X161657142Y-88748609D01*
X161657142Y-88748609D02*
X161609523Y-88653371D01*
X161609523Y-88653371D02*
X161514285Y-88605752D01*
X161514285Y-88605752D02*
X161323809Y-88605752D01*
X161323809Y-88605752D02*
X161228571Y-88653371D01*
X161228571Y-88653371D02*
X161180952Y-88748609D01*
X161180952Y-88748609D02*
X161180952Y-88843847D01*
X161180952Y-88843847D02*
X161657142Y-88939085D01*
X160323809Y-89272419D02*
X160323809Y-88272419D01*
X160323809Y-89224800D02*
X160419047Y-89272419D01*
X160419047Y-89272419D02*
X160609523Y-89272419D01*
X160609523Y-89272419D02*
X160704761Y-89224800D01*
X160704761Y-89224800D02*
X160752380Y-89177180D01*
X160752380Y-89177180D02*
X160799999Y-89081942D01*
X160799999Y-89081942D02*
X160799999Y-88796228D01*
X160799999Y-88796228D02*
X160752380Y-88700990D01*
X160752380Y-88700990D02*
X160704761Y-88653371D01*
X160704761Y-88653371D02*
X160609523Y-88605752D01*
X160609523Y-88605752D02*
X160419047Y-88605752D01*
X160419047Y-88605752D02*
X160323809Y-88653371D01*
X159085713Y-89272419D02*
X159085713Y-88272419D01*
X159085713Y-88653371D02*
X158990475Y-88605752D01*
X158990475Y-88605752D02*
X158799999Y-88605752D01*
X158799999Y-88605752D02*
X158704761Y-88653371D01*
X158704761Y-88653371D02*
X158657142Y-88700990D01*
X158657142Y-88700990D02*
X158609523Y-88796228D01*
X158609523Y-88796228D02*
X158609523Y-89081942D01*
X158609523Y-89081942D02*
X158657142Y-89177180D01*
X158657142Y-89177180D02*
X158704761Y-89224800D01*
X158704761Y-89224800D02*
X158799999Y-89272419D01*
X158799999Y-89272419D02*
X158990475Y-89272419D01*
X158990475Y-89272419D02*
X159085713Y-89224800D01*
X158276189Y-88605752D02*
X158038094Y-89272419D01*
X157799999Y-88605752D02*
X158038094Y-89272419D01*
X158038094Y-89272419D02*
X158133332Y-89510514D01*
X158133332Y-89510514D02*
X158180951Y-89558133D01*
X158180951Y-89558133D02*
X158276189Y-89605752D01*
X156704760Y-89224800D02*
X156561903Y-89272419D01*
X156561903Y-89272419D02*
X156323808Y-89272419D01*
X156323808Y-89272419D02*
X156228570Y-89224800D01*
X156228570Y-89224800D02*
X156180951Y-89177180D01*
X156180951Y-89177180D02*
X156133332Y-89081942D01*
X156133332Y-89081942D02*
X156133332Y-88986704D01*
X156133332Y-88986704D02*
X156180951Y-88891466D01*
X156180951Y-88891466D02*
X156228570Y-88843847D01*
X156228570Y-88843847D02*
X156323808Y-88796228D01*
X156323808Y-88796228D02*
X156514284Y-88748609D01*
X156514284Y-88748609D02*
X156609522Y-88700990D01*
X156609522Y-88700990D02*
X156657141Y-88653371D01*
X156657141Y-88653371D02*
X156704760Y-88558133D01*
X156704760Y-88558133D02*
X156704760Y-88462895D01*
X156704760Y-88462895D02*
X156657141Y-88367657D01*
X156657141Y-88367657D02*
X156609522Y-88320038D01*
X156609522Y-88320038D02*
X156514284Y-88272419D01*
X156514284Y-88272419D02*
X156276189Y-88272419D01*
X156276189Y-88272419D02*
X156133332Y-88320038D01*
X155847617Y-88605752D02*
X155466665Y-88605752D01*
X155704760Y-88272419D02*
X155704760Y-89129561D01*
X155704760Y-89129561D02*
X155657141Y-89224800D01*
X155657141Y-89224800D02*
X155561903Y-89272419D01*
X155561903Y-89272419D02*
X155466665Y-89272419D01*
X154752379Y-89224800D02*
X154847617Y-89272419D01*
X154847617Y-89272419D02*
X155038093Y-89272419D01*
X155038093Y-89272419D02*
X155133331Y-89224800D01*
X155133331Y-89224800D02*
X155180950Y-89129561D01*
X155180950Y-89129561D02*
X155180950Y-88748609D01*
X155180950Y-88748609D02*
X155133331Y-88653371D01*
X155133331Y-88653371D02*
X155038093Y-88605752D01*
X155038093Y-88605752D02*
X154847617Y-88605752D01*
X154847617Y-88605752D02*
X154752379Y-88653371D01*
X154752379Y-88653371D02*
X154704760Y-88748609D01*
X154704760Y-88748609D02*
X154704760Y-88843847D01*
X154704760Y-88843847D02*
X155180950Y-88939085D01*
X154371426Y-88605752D02*
X154133331Y-89272419D01*
X154133331Y-89272419D02*
X153895236Y-88605752D01*
X153133331Y-89224800D02*
X153228569Y-89272419D01*
X153228569Y-89272419D02*
X153419045Y-89272419D01*
X153419045Y-89272419D02*
X153514283Y-89224800D01*
X153514283Y-89224800D02*
X153561902Y-89129561D01*
X153561902Y-89129561D02*
X153561902Y-88748609D01*
X153561902Y-88748609D02*
X153514283Y-88653371D01*
X153514283Y-88653371D02*
X153419045Y-88605752D01*
X153419045Y-88605752D02*
X153228569Y-88605752D01*
X153228569Y-88605752D02*
X153133331Y-88653371D01*
X153133331Y-88653371D02*
X153085712Y-88748609D01*
X153085712Y-88748609D02*
X153085712Y-88843847D01*
X153085712Y-88843847D02*
X153561902Y-88939085D01*
X151609521Y-88272419D02*
X151609521Y-88986704D01*
X151609521Y-88986704D02*
X151657140Y-89129561D01*
X151657140Y-89129561D02*
X151752378Y-89224800D01*
X151752378Y-89224800D02*
X151895235Y-89272419D01*
X151895235Y-89272419D02*
X151990473Y-89272419D01*
X151133330Y-89177180D02*
X151085711Y-89224800D01*
X151085711Y-89224800D02*
X151133330Y-89272419D01*
X151133330Y-89272419D02*
X151180949Y-89224800D01*
X151180949Y-89224800D02*
X151133330Y-89177180D01*
X151133330Y-89177180D02*
X151133330Y-89272419D01*
X149371426Y-88320038D02*
X149466664Y-88272419D01*
X149466664Y-88272419D02*
X149609521Y-88272419D01*
X149609521Y-88272419D02*
X149752378Y-88320038D01*
X149752378Y-88320038D02*
X149847616Y-88415276D01*
X149847616Y-88415276D02*
X149895235Y-88510514D01*
X149895235Y-88510514D02*
X149942854Y-88700990D01*
X149942854Y-88700990D02*
X149942854Y-88843847D01*
X149942854Y-88843847D02*
X149895235Y-89034323D01*
X149895235Y-89034323D02*
X149847616Y-89129561D01*
X149847616Y-89129561D02*
X149752378Y-89224800D01*
X149752378Y-89224800D02*
X149609521Y-89272419D01*
X149609521Y-89272419D02*
X149514283Y-89272419D01*
X149514283Y-89272419D02*
X149371426Y-89224800D01*
X149371426Y-89224800D02*
X149323807Y-89177180D01*
X149323807Y-89177180D02*
X149323807Y-88843847D01*
X149323807Y-88843847D02*
X149514283Y-88843847D01*
X148895235Y-89272419D02*
X148895235Y-88605752D01*
X148895235Y-88796228D02*
X148847616Y-88700990D01*
X148847616Y-88700990D02*
X148799997Y-88653371D01*
X148799997Y-88653371D02*
X148704759Y-88605752D01*
X148704759Y-88605752D02*
X148609521Y-88605752D01*
X147847616Y-89272419D02*
X147847616Y-88748609D01*
X147847616Y-88748609D02*
X147895235Y-88653371D01*
X147895235Y-88653371D02*
X147990473Y-88605752D01*
X147990473Y-88605752D02*
X148180949Y-88605752D01*
X148180949Y-88605752D02*
X148276187Y-88653371D01*
X147847616Y-89224800D02*
X147942854Y-89272419D01*
X147942854Y-89272419D02*
X148180949Y-89272419D01*
X148180949Y-89272419D02*
X148276187Y-89224800D01*
X148276187Y-89224800D02*
X148323806Y-89129561D01*
X148323806Y-89129561D02*
X148323806Y-89034323D01*
X148323806Y-89034323D02*
X148276187Y-88939085D01*
X148276187Y-88939085D02*
X148180949Y-88891466D01*
X148180949Y-88891466D02*
X147942854Y-88891466D01*
X147942854Y-88891466D02*
X147847616Y-88843847D01*
X147466663Y-88605752D02*
X147228568Y-89272419D01*
X146990473Y-88605752D02*
X147228568Y-89272419D01*
X147228568Y-89272419D02*
X147323806Y-89510514D01*
X147323806Y-89510514D02*
X147371425Y-89558133D01*
X147371425Y-89558133D02*
X147466663Y-89605752D01*
X146561901Y-89224800D02*
X146561901Y-89272419D01*
X146561901Y-89272419D02*
X146609520Y-89367657D01*
X146609520Y-89367657D02*
X146657139Y-89415276D01*
X145514282Y-88272419D02*
X145180949Y-89272419D01*
X145180949Y-89272419D02*
X144847616Y-88272419D01*
X143990473Y-89272419D02*
X144561901Y-89272419D01*
X144276187Y-89272419D02*
X144276187Y-88272419D01*
X144276187Y-88272419D02*
X144371425Y-88415276D01*
X144371425Y-88415276D02*
X144466663Y-88510514D01*
X144466663Y-88510514D02*
X144561901Y-88558133D01*
X143561901Y-89177180D02*
X143514282Y-89224800D01*
X143514282Y-89224800D02*
X143561901Y-89272419D01*
X143561901Y-89272419D02*
X143609520Y-89224800D01*
X143609520Y-89224800D02*
X143561901Y-89177180D01*
X143561901Y-89177180D02*
X143561901Y-89272419D01*
X142895235Y-88272419D02*
X142799997Y-88272419D01*
X142799997Y-88272419D02*
X142704759Y-88320038D01*
X142704759Y-88320038D02*
X142657140Y-88367657D01*
X142657140Y-88367657D02*
X142609521Y-88462895D01*
X142609521Y-88462895D02*
X142561902Y-88653371D01*
X142561902Y-88653371D02*
X142561902Y-88891466D01*
X142561902Y-88891466D02*
X142609521Y-89081942D01*
X142609521Y-89081942D02*
X142657140Y-89177180D01*
X142657140Y-89177180D02*
X142704759Y-89224800D01*
X142704759Y-89224800D02*
X142799997Y-89272419D01*
X142799997Y-89272419D02*
X142895235Y-89272419D01*
X142895235Y-89272419D02*
X142990473Y-89224800D01*
X142990473Y-89224800D02*
X143038092Y-89177180D01*
X143038092Y-89177180D02*
X143085711Y-89081942D01*
X143085711Y-89081942D02*
X143133330Y-88891466D01*
X143133330Y-88891466D02*
X143133330Y-88653371D01*
X143133330Y-88653371D02*
X143085711Y-88462895D01*
X143085711Y-88462895D02*
X143038092Y-88367657D01*
X143038092Y-88367657D02*
X142990473Y-88320038D01*
X142990473Y-88320038D02*
X142895235Y-88272419D01*
X141419044Y-88367657D02*
X141371425Y-88320038D01*
X141371425Y-88320038D02*
X141276187Y-88272419D01*
X141276187Y-88272419D02*
X141038092Y-88272419D01*
X141038092Y-88272419D02*
X140942854Y-88320038D01*
X140942854Y-88320038D02*
X140895235Y-88367657D01*
X140895235Y-88367657D02*
X140847616Y-88462895D01*
X140847616Y-88462895D02*
X140847616Y-88558133D01*
X140847616Y-88558133D02*
X140895235Y-88700990D01*
X140895235Y-88700990D02*
X141466663Y-89272419D01*
X141466663Y-89272419D02*
X140847616Y-89272419D01*
X140228568Y-88272419D02*
X140133330Y-88272419D01*
X140133330Y-88272419D02*
X140038092Y-88320038D01*
X140038092Y-88320038D02*
X139990473Y-88367657D01*
X139990473Y-88367657D02*
X139942854Y-88462895D01*
X139942854Y-88462895D02*
X139895235Y-88653371D01*
X139895235Y-88653371D02*
X139895235Y-88891466D01*
X139895235Y-88891466D02*
X139942854Y-89081942D01*
X139942854Y-89081942D02*
X139990473Y-89177180D01*
X139990473Y-89177180D02*
X140038092Y-89224800D01*
X140038092Y-89224800D02*
X140133330Y-89272419D01*
X140133330Y-89272419D02*
X140228568Y-89272419D01*
X140228568Y-89272419D02*
X140323806Y-89224800D01*
X140323806Y-89224800D02*
X140371425Y-89177180D01*
X140371425Y-89177180D02*
X140419044Y-89081942D01*
X140419044Y-89081942D02*
X140466663Y-88891466D01*
X140466663Y-88891466D02*
X140466663Y-88653371D01*
X140466663Y-88653371D02*
X140419044Y-88462895D01*
X140419044Y-88462895D02*
X140371425Y-88367657D01*
X140371425Y-88367657D02*
X140323806Y-88320038D01*
X140323806Y-88320038D02*
X140228568Y-88272419D01*
X139514282Y-88367657D02*
X139466663Y-88320038D01*
X139466663Y-88320038D02*
X139371425Y-88272419D01*
X139371425Y-88272419D02*
X139133330Y-88272419D01*
X139133330Y-88272419D02*
X139038092Y-88320038D01*
X139038092Y-88320038D02*
X138990473Y-88367657D01*
X138990473Y-88367657D02*
X138942854Y-88462895D01*
X138942854Y-88462895D02*
X138942854Y-88558133D01*
X138942854Y-88558133D02*
X138990473Y-88700990D01*
X138990473Y-88700990D02*
X139561901Y-89272419D01*
X139561901Y-89272419D02*
X138942854Y-89272419D01*
X138038092Y-88272419D02*
X138514282Y-88272419D01*
X138514282Y-88272419D02*
X138561901Y-88748609D01*
X138561901Y-88748609D02*
X138514282Y-88700990D01*
X138514282Y-88700990D02*
X138419044Y-88653371D01*
X138419044Y-88653371D02*
X138180949Y-88653371D01*
X138180949Y-88653371D02*
X138085711Y-88700990D01*
X138085711Y-88700990D02*
X138038092Y-88748609D01*
X138038092Y-88748609D02*
X137990473Y-88843847D01*
X137990473Y-88843847D02*
X137990473Y-89081942D01*
X137990473Y-89081942D02*
X138038092Y-89177180D01*
X138038092Y-89177180D02*
X138085711Y-89224800D01*
X138085711Y-89224800D02*
X138180949Y-89272419D01*
X138180949Y-89272419D02*
X138419044Y-89272419D01*
X138419044Y-89272419D02*
X138514282Y-89224800D01*
X138514282Y-89224800D02*
X138561901Y-89177180D01*
X137561901Y-88891466D02*
X136799997Y-88891466D01*
X136133330Y-88272419D02*
X136038092Y-88272419D01*
X136038092Y-88272419D02*
X135942854Y-88320038D01*
X135942854Y-88320038D02*
X135895235Y-88367657D01*
X135895235Y-88367657D02*
X135847616Y-88462895D01*
X135847616Y-88462895D02*
X135799997Y-88653371D01*
X135799997Y-88653371D02*
X135799997Y-88891466D01*
X135799997Y-88891466D02*
X135847616Y-89081942D01*
X135847616Y-89081942D02*
X135895235Y-89177180D01*
X135895235Y-89177180D02*
X135942854Y-89224800D01*
X135942854Y-89224800D02*
X136038092Y-89272419D01*
X136038092Y-89272419D02*
X136133330Y-89272419D01*
X136133330Y-89272419D02*
X136228568Y-89224800D01*
X136228568Y-89224800D02*
X136276187Y-89177180D01*
X136276187Y-89177180D02*
X136323806Y-89081942D01*
X136323806Y-89081942D02*
X136371425Y-88891466D01*
X136371425Y-88891466D02*
X136371425Y-88653371D01*
X136371425Y-88653371D02*
X136323806Y-88462895D01*
X136323806Y-88462895D02*
X136276187Y-88367657D01*
X136276187Y-88367657D02*
X136228568Y-88320038D01*
X136228568Y-88320038D02*
X136133330Y-88272419D01*
X135323806Y-89272419D02*
X135133330Y-89272419D01*
X135133330Y-89272419D02*
X135038092Y-89224800D01*
X135038092Y-89224800D02*
X134990473Y-89177180D01*
X134990473Y-89177180D02*
X134895235Y-89034323D01*
X134895235Y-89034323D02*
X134847616Y-88843847D01*
X134847616Y-88843847D02*
X134847616Y-88462895D01*
X134847616Y-88462895D02*
X134895235Y-88367657D01*
X134895235Y-88367657D02*
X134942854Y-88320038D01*
X134942854Y-88320038D02*
X135038092Y-88272419D01*
X135038092Y-88272419D02*
X135228568Y-88272419D01*
X135228568Y-88272419D02*
X135323806Y-88320038D01*
X135323806Y-88320038D02*
X135371425Y-88367657D01*
X135371425Y-88367657D02*
X135419044Y-88462895D01*
X135419044Y-88462895D02*
X135419044Y-88700990D01*
X135419044Y-88700990D02*
X135371425Y-88796228D01*
X135371425Y-88796228D02*
X135323806Y-88843847D01*
X135323806Y-88843847D02*
X135228568Y-88891466D01*
X135228568Y-88891466D02*
X135038092Y-88891466D01*
X135038092Y-88891466D02*
X134942854Y-88843847D01*
X134942854Y-88843847D02*
X134895235Y-88796228D01*
X134895235Y-88796228D02*
X134847616Y-88700990D01*
X134419044Y-88891466D02*
X133657140Y-88891466D01*
X132657140Y-89272419D02*
X133228568Y-89272419D01*
X132942854Y-89272419D02*
X132942854Y-88272419D01*
X132942854Y-88272419D02*
X133038092Y-88415276D01*
X133038092Y-88415276D02*
X133133330Y-88510514D01*
X133133330Y-88510514D02*
X133228568Y-88558133D01*
X132323806Y-88272419D02*
X131704759Y-88272419D01*
X131704759Y-88272419D02*
X132038092Y-88653371D01*
X132038092Y-88653371D02*
X131895235Y-88653371D01*
X131895235Y-88653371D02*
X131799997Y-88700990D01*
X131799997Y-88700990D02*
X131752378Y-88748609D01*
X131752378Y-88748609D02*
X131704759Y-88843847D01*
X131704759Y-88843847D02*
X131704759Y-89081942D01*
X131704759Y-89081942D02*
X131752378Y-89177180D01*
X131752378Y-89177180D02*
X131799997Y-89224800D01*
X131799997Y-89224800D02*
X131895235Y-89272419D01*
X131895235Y-89272419D02*
X132180949Y-89272419D01*
X132180949Y-89272419D02*
X132276187Y-89224800D01*
X132276187Y-89224800D02*
X132323806Y-89177180D01*
D11*
X163995345Y-93145913D02*
X164551726Y-93145913D01*
X163383326Y-92756447D02*
X163995345Y-93145913D01*
X163995345Y-93145913D02*
X163383326Y-93535380D01*
X163939707Y-93924847D02*
X163939707Y-94314314D01*
X164551726Y-94481228D02*
X164551726Y-93924847D01*
X164551726Y-93924847D02*
X163383326Y-93924847D01*
X163383326Y-93924847D02*
X163383326Y-94481228D01*
X164551726Y-95538352D02*
X164551726Y-94981971D01*
X164551726Y-94981971D02*
X163383326Y-94981971D01*
X164551726Y-96484200D02*
X164551726Y-95927819D01*
X164551726Y-95927819D02*
X163383326Y-95927819D01*
X163383326Y-97096219D02*
X163383326Y-97318772D01*
X163383326Y-97318772D02*
X163438964Y-97430048D01*
X163438964Y-97430048D02*
X163550240Y-97541324D01*
X163550240Y-97541324D02*
X163772792Y-97596962D01*
X163772792Y-97596962D02*
X164162259Y-97596962D01*
X164162259Y-97596962D02*
X164384811Y-97541324D01*
X164384811Y-97541324D02*
X164496088Y-97430048D01*
X164496088Y-97430048D02*
X164551726Y-97318772D01*
X164551726Y-97318772D02*
X164551726Y-97096219D01*
X164551726Y-97096219D02*
X164496088Y-96984943D01*
X164496088Y-96984943D02*
X164384811Y-96873667D01*
X164384811Y-96873667D02*
X164162259Y-96818029D01*
X164162259Y-96818029D02*
X163772792Y-96818029D01*
X163772792Y-96818029D02*
X163550240Y-96873667D01*
X163550240Y-96873667D02*
X163438964Y-96984943D01*
X163438964Y-96984943D02*
X163383326Y-97096219D01*
X163383326Y-97986429D02*
X164551726Y-98264619D01*
X164551726Y-98264619D02*
X163717154Y-98487172D01*
X163717154Y-98487172D02*
X164551726Y-98709724D01*
X164551726Y-98709724D02*
X163383326Y-98987915D01*
D10*
X185522931Y-102872419D02*
X185522931Y-101872419D01*
X185522931Y-101872419D02*
X185141979Y-101872419D01*
X185141979Y-101872419D02*
X185046741Y-101920038D01*
X185046741Y-101920038D02*
X184999122Y-101967657D01*
X184999122Y-101967657D02*
X184951503Y-102062895D01*
X184951503Y-102062895D02*
X184951503Y-102205752D01*
X184951503Y-102205752D02*
X184999122Y-102300990D01*
X184999122Y-102300990D02*
X185046741Y-102348609D01*
X185046741Y-102348609D02*
X185141979Y-102396228D01*
X185141979Y-102396228D02*
X185522931Y-102396228D01*
X184332455Y-101872419D02*
X184141979Y-101872419D01*
X184141979Y-101872419D02*
X184046741Y-101920038D01*
X184046741Y-101920038D02*
X183951503Y-102015276D01*
X183951503Y-102015276D02*
X183903884Y-102205752D01*
X183903884Y-102205752D02*
X183903884Y-102539085D01*
X183903884Y-102539085D02*
X183951503Y-102729561D01*
X183951503Y-102729561D02*
X184046741Y-102824800D01*
X184046741Y-102824800D02*
X184141979Y-102872419D01*
X184141979Y-102872419D02*
X184332455Y-102872419D01*
X184332455Y-102872419D02*
X184427693Y-102824800D01*
X184427693Y-102824800D02*
X184522931Y-102729561D01*
X184522931Y-102729561D02*
X184570550Y-102539085D01*
X184570550Y-102539085D02*
X184570550Y-102205752D01*
X184570550Y-102205752D02*
X184522931Y-102015276D01*
X184522931Y-102015276D02*
X184427693Y-101920038D01*
X184427693Y-101920038D02*
X184332455Y-101872419D01*
X183570550Y-101872419D02*
X183332455Y-102872419D01*
X183332455Y-102872419D02*
X183141979Y-102158133D01*
X183141979Y-102158133D02*
X182951503Y-102872419D01*
X182951503Y-102872419D02*
X182713408Y-101872419D01*
X182332455Y-102348609D02*
X181999122Y-102348609D01*
X181856265Y-102872419D02*
X182332455Y-102872419D01*
X182332455Y-102872419D02*
X182332455Y-101872419D01*
X182332455Y-101872419D02*
X181856265Y-101872419D01*
X180856265Y-102872419D02*
X181189598Y-102396228D01*
X181427693Y-102872419D02*
X181427693Y-101872419D01*
X181427693Y-101872419D02*
X181046741Y-101872419D01*
X181046741Y-101872419D02*
X180951503Y-101920038D01*
X180951503Y-101920038D02*
X180903884Y-101967657D01*
X180903884Y-101967657D02*
X180856265Y-102062895D01*
X180856265Y-102062895D02*
X180856265Y-102205752D01*
X180856265Y-102205752D02*
X180903884Y-102300990D01*
X180903884Y-102300990D02*
X180951503Y-102348609D01*
X180951503Y-102348609D02*
X181046741Y-102396228D01*
X181046741Y-102396228D02*
X181427693Y-102396228D01*
D11*
X152551726Y-95348885D02*
X151995345Y-94959418D01*
X152551726Y-94681228D02*
X151383326Y-94681228D01*
X151383326Y-94681228D02*
X151383326Y-95126333D01*
X151383326Y-95126333D02*
X151438964Y-95237609D01*
X151438964Y-95237609D02*
X151494602Y-95293247D01*
X151494602Y-95293247D02*
X151605878Y-95348885D01*
X151605878Y-95348885D02*
X151772792Y-95348885D01*
X151772792Y-95348885D02*
X151884068Y-95293247D01*
X151884068Y-95293247D02*
X151939707Y-95237609D01*
X151939707Y-95237609D02*
X151995345Y-95126333D01*
X151995345Y-95126333D02*
X151995345Y-94681228D01*
X151939707Y-95849628D02*
X151939707Y-96239095D01*
X152551726Y-96406009D02*
X152551726Y-95849628D01*
X152551726Y-95849628D02*
X151383326Y-95849628D01*
X151383326Y-95849628D02*
X151383326Y-96406009D01*
X152551726Y-96906752D02*
X151383326Y-96906752D01*
X151383326Y-96906752D02*
X151383326Y-97184942D01*
X151383326Y-97184942D02*
X151438964Y-97351857D01*
X151438964Y-97351857D02*
X151550240Y-97463133D01*
X151550240Y-97463133D02*
X151661516Y-97518771D01*
X151661516Y-97518771D02*
X151884068Y-97574409D01*
X151884068Y-97574409D02*
X152050983Y-97574409D01*
X152050983Y-97574409D02*
X152273535Y-97518771D01*
X152273535Y-97518771D02*
X152384811Y-97463133D01*
X152384811Y-97463133D02*
X152496088Y-97351857D01*
X152496088Y-97351857D02*
X152551726Y-97184942D01*
X152551726Y-97184942D02*
X152551726Y-96906752D01*
D10*
X134976189Y-102786704D02*
X134499999Y-102786704D01*
X135071427Y-103072419D02*
X134738094Y-102072419D01*
X134738094Y-102072419D02*
X134404761Y-103072419D01*
X133642856Y-102405752D02*
X133642856Y-103072419D01*
X134071427Y-102405752D02*
X134071427Y-102929561D01*
X134071427Y-102929561D02*
X134023808Y-103024800D01*
X134023808Y-103024800D02*
X133928570Y-103072419D01*
X133928570Y-103072419D02*
X133785713Y-103072419D01*
X133785713Y-103072419D02*
X133690475Y-103024800D01*
X133690475Y-103024800D02*
X133642856Y-102977180D01*
X132738094Y-103072419D02*
X132738094Y-102072419D01*
X132738094Y-103024800D02*
X132833332Y-103072419D01*
X132833332Y-103072419D02*
X133023808Y-103072419D01*
X133023808Y-103072419D02*
X133119046Y-103024800D01*
X133119046Y-103024800D02*
X133166665Y-102977180D01*
X133166665Y-102977180D02*
X133214284Y-102881942D01*
X133214284Y-102881942D02*
X133214284Y-102596228D01*
X133214284Y-102596228D02*
X133166665Y-102500990D01*
X133166665Y-102500990D02*
X133119046Y-102453371D01*
X133119046Y-102453371D02*
X133023808Y-102405752D01*
X133023808Y-102405752D02*
X132833332Y-102405752D01*
X132833332Y-102405752D02*
X132738094Y-102453371D01*
X132261903Y-103072419D02*
X132261903Y-102405752D01*
X132261903Y-102072419D02*
X132309522Y-102120038D01*
X132309522Y-102120038D02*
X132261903Y-102167657D01*
X132261903Y-102167657D02*
X132214284Y-102120038D01*
X132214284Y-102120038D02*
X132261903Y-102072419D01*
X132261903Y-102072419D02*
X132261903Y-102167657D01*
X131642856Y-103072419D02*
X131738094Y-103024800D01*
X131738094Y-103024800D02*
X131785713Y-102977180D01*
X131785713Y-102977180D02*
X131833332Y-102881942D01*
X131833332Y-102881942D02*
X131833332Y-102596228D01*
X131833332Y-102596228D02*
X131785713Y-102500990D01*
X131785713Y-102500990D02*
X131738094Y-102453371D01*
X131738094Y-102453371D02*
X131642856Y-102405752D01*
X131642856Y-102405752D02*
X131499999Y-102405752D01*
X131499999Y-102405752D02*
X131404761Y-102453371D01*
X131404761Y-102453371D02*
X131357142Y-102500990D01*
X131357142Y-102500990D02*
X131309523Y-102596228D01*
X131309523Y-102596228D02*
X131309523Y-102881942D01*
X131309523Y-102881942D02*
X131357142Y-102977180D01*
X131357142Y-102977180D02*
X131404761Y-103024800D01*
X131404761Y-103024800D02*
X131499999Y-103072419D01*
X131499999Y-103072419D02*
X131642856Y-103072419D01*
X130119046Y-103072419D02*
X130119046Y-102072419D01*
X129642856Y-103072419D02*
X129642856Y-102072419D01*
X129642856Y-102072419D02*
X129071428Y-103072419D01*
X129071428Y-103072419D02*
X129071428Y-102072419D01*
D11*
X165551153Y-105795126D02*
X166107534Y-105795126D01*
X166107534Y-105795126D02*
X166107534Y-104626726D01*
X164660943Y-105016192D02*
X164660943Y-105795126D01*
X165161686Y-105016192D02*
X165161686Y-105628211D01*
X165161686Y-105628211D02*
X165106048Y-105739488D01*
X165106048Y-105739488D02*
X164994772Y-105795126D01*
X164994772Y-105795126D02*
X164827857Y-105795126D01*
X164827857Y-105795126D02*
X164716581Y-105739488D01*
X164716581Y-105739488D02*
X164660943Y-105683849D01*
X164104562Y-105795126D02*
X164104562Y-105016192D01*
X164104562Y-105127468D02*
X164048924Y-105071830D01*
X164048924Y-105071830D02*
X163937648Y-105016192D01*
X163937648Y-105016192D02*
X163770733Y-105016192D01*
X163770733Y-105016192D02*
X163659457Y-105071830D01*
X163659457Y-105071830D02*
X163603819Y-105183107D01*
X163603819Y-105183107D02*
X163603819Y-105795126D01*
X163603819Y-105183107D02*
X163548181Y-105071830D01*
X163548181Y-105071830D02*
X163436905Y-105016192D01*
X163436905Y-105016192D02*
X163269991Y-105016192D01*
X163269991Y-105016192D02*
X163158714Y-105071830D01*
X163158714Y-105071830D02*
X163103076Y-105183107D01*
X163103076Y-105183107D02*
X163103076Y-105795126D01*
X162546695Y-105795126D02*
X162546695Y-104626726D01*
X162546695Y-105071830D02*
X162435419Y-105016192D01*
X162435419Y-105016192D02*
X162212866Y-105016192D01*
X162212866Y-105016192D02*
X162101590Y-105071830D01*
X162101590Y-105071830D02*
X162045952Y-105127468D01*
X162045952Y-105127468D02*
X161990314Y-105238745D01*
X161990314Y-105238745D02*
X161990314Y-105572573D01*
X161990314Y-105572573D02*
X162045952Y-105683849D01*
X162045952Y-105683849D02*
X162101590Y-105739488D01*
X162101590Y-105739488D02*
X162212866Y-105795126D01*
X162212866Y-105795126D02*
X162435419Y-105795126D01*
X162435419Y-105795126D02*
X162546695Y-105739488D01*
X161044466Y-105739488D02*
X161155742Y-105795126D01*
X161155742Y-105795126D02*
X161378295Y-105795126D01*
X161378295Y-105795126D02*
X161489571Y-105739488D01*
X161489571Y-105739488D02*
X161545209Y-105628211D01*
X161545209Y-105628211D02*
X161545209Y-105183107D01*
X161545209Y-105183107D02*
X161489571Y-105071830D01*
X161489571Y-105071830D02*
X161378295Y-105016192D01*
X161378295Y-105016192D02*
X161155742Y-105016192D01*
X161155742Y-105016192D02*
X161044466Y-105071830D01*
X161044466Y-105071830D02*
X160988828Y-105183107D01*
X160988828Y-105183107D02*
X160988828Y-105294383D01*
X160988828Y-105294383D02*
X161545209Y-105405659D01*
X160488085Y-105795126D02*
X160488085Y-105016192D01*
X160488085Y-105238745D02*
X160432447Y-105127468D01*
X160432447Y-105127468D02*
X160376809Y-105071830D01*
X160376809Y-105071830D02*
X160265533Y-105016192D01*
X160265533Y-105016192D02*
X160154256Y-105016192D01*
X159264047Y-105016192D02*
X159264047Y-105962040D01*
X159264047Y-105962040D02*
X159319685Y-106073316D01*
X159319685Y-106073316D02*
X159375323Y-106128954D01*
X159375323Y-106128954D02*
X159486600Y-106184592D01*
X159486600Y-106184592D02*
X159653514Y-106184592D01*
X159653514Y-106184592D02*
X159764790Y-106128954D01*
X159264047Y-105739488D02*
X159375323Y-105795126D01*
X159375323Y-105795126D02*
X159597876Y-105795126D01*
X159597876Y-105795126D02*
X159709152Y-105739488D01*
X159709152Y-105739488D02*
X159764790Y-105683849D01*
X159764790Y-105683849D02*
X159820428Y-105572573D01*
X159820428Y-105572573D02*
X159820428Y-105238745D01*
X159820428Y-105238745D02*
X159764790Y-105127468D01*
X159764790Y-105127468D02*
X159709152Y-105071830D01*
X159709152Y-105071830D02*
X159597876Y-105016192D01*
X159597876Y-105016192D02*
X159375323Y-105016192D01*
X159375323Y-105016192D02*
X159264047Y-105071830D01*
X157873094Y-105739488D02*
X157706180Y-105795126D01*
X157706180Y-105795126D02*
X157427989Y-105795126D01*
X157427989Y-105795126D02*
X157316713Y-105739488D01*
X157316713Y-105739488D02*
X157261075Y-105683849D01*
X157261075Y-105683849D02*
X157205437Y-105572573D01*
X157205437Y-105572573D02*
X157205437Y-105461297D01*
X157205437Y-105461297D02*
X157261075Y-105350021D01*
X157261075Y-105350021D02*
X157316713Y-105294383D01*
X157316713Y-105294383D02*
X157427989Y-105238745D01*
X157427989Y-105238745D02*
X157650542Y-105183107D01*
X157650542Y-105183107D02*
X157761818Y-105127468D01*
X157761818Y-105127468D02*
X157817456Y-105071830D01*
X157817456Y-105071830D02*
X157873094Y-104960554D01*
X157873094Y-104960554D02*
X157873094Y-104849278D01*
X157873094Y-104849278D02*
X157817456Y-104738002D01*
X157817456Y-104738002D02*
X157761818Y-104682364D01*
X157761818Y-104682364D02*
X157650542Y-104626726D01*
X157650542Y-104626726D02*
X157372351Y-104626726D01*
X157372351Y-104626726D02*
X157205437Y-104682364D01*
X156871608Y-104626726D02*
X156482142Y-105795126D01*
X156482142Y-105795126D02*
X156092675Y-104626726D01*
X155536294Y-105127468D02*
X155647570Y-105071830D01*
X155647570Y-105071830D02*
X155703208Y-105016192D01*
X155703208Y-105016192D02*
X155758846Y-104904916D01*
X155758846Y-104904916D02*
X155758846Y-104849278D01*
X155758846Y-104849278D02*
X155703208Y-104738002D01*
X155703208Y-104738002D02*
X155647570Y-104682364D01*
X155647570Y-104682364D02*
X155536294Y-104626726D01*
X155536294Y-104626726D02*
X155313741Y-104626726D01*
X155313741Y-104626726D02*
X155202465Y-104682364D01*
X155202465Y-104682364D02*
X155146827Y-104738002D01*
X155146827Y-104738002D02*
X155091189Y-104849278D01*
X155091189Y-104849278D02*
X155091189Y-104904916D01*
X155091189Y-104904916D02*
X155146827Y-105016192D01*
X155146827Y-105016192D02*
X155202465Y-105071830D01*
X155202465Y-105071830D02*
X155313741Y-105127468D01*
X155313741Y-105127468D02*
X155536294Y-105127468D01*
X155536294Y-105127468D02*
X155647570Y-105183107D01*
X155647570Y-105183107D02*
X155703208Y-105238745D01*
X155703208Y-105238745D02*
X155758846Y-105350021D01*
X155758846Y-105350021D02*
X155758846Y-105572573D01*
X155758846Y-105572573D02*
X155703208Y-105683849D01*
X155703208Y-105683849D02*
X155647570Y-105739488D01*
X155647570Y-105739488D02*
X155536294Y-105795126D01*
X155536294Y-105795126D02*
X155313741Y-105795126D01*
X155313741Y-105795126D02*
X155202465Y-105739488D01*
X155202465Y-105739488D02*
X155146827Y-105683849D01*
X155146827Y-105683849D02*
X155091189Y-105572573D01*
X155091189Y-105572573D02*
X155091189Y-105350021D01*
X155091189Y-105350021D02*
X155146827Y-105238745D01*
X155146827Y-105238745D02*
X155202465Y-105183107D01*
X155202465Y-105183107D02*
X155313741Y-105127468D01*
X154367894Y-104626726D02*
X154256617Y-104626726D01*
X154256617Y-104626726D02*
X154145341Y-104682364D01*
X154145341Y-104682364D02*
X154089703Y-104738002D01*
X154089703Y-104738002D02*
X154034065Y-104849278D01*
X154034065Y-104849278D02*
X153978427Y-105071830D01*
X153978427Y-105071830D02*
X153978427Y-105350021D01*
X153978427Y-105350021D02*
X154034065Y-105572573D01*
X154034065Y-105572573D02*
X154089703Y-105683849D01*
X154089703Y-105683849D02*
X154145341Y-105739488D01*
X154145341Y-105739488D02*
X154256617Y-105795126D01*
X154256617Y-105795126D02*
X154367894Y-105795126D01*
X154367894Y-105795126D02*
X154479170Y-105739488D01*
X154479170Y-105739488D02*
X154534808Y-105683849D01*
X154534808Y-105683849D02*
X154590446Y-105572573D01*
X154590446Y-105572573D02*
X154646084Y-105350021D01*
X154646084Y-105350021D02*
X154646084Y-105071830D01*
X154646084Y-105071830D02*
X154590446Y-104849278D01*
X154590446Y-104849278D02*
X154534808Y-104738002D01*
X154534808Y-104738002D02*
X154479170Y-104682364D01*
X154479170Y-104682364D02*
X154367894Y-104626726D01*
D10*
X174123809Y-102877180D02*
X174171428Y-102924800D01*
X174171428Y-102924800D02*
X174314285Y-102972419D01*
X174314285Y-102972419D02*
X174409523Y-102972419D01*
X174409523Y-102972419D02*
X174552380Y-102924800D01*
X174552380Y-102924800D02*
X174647618Y-102829561D01*
X174647618Y-102829561D02*
X174695237Y-102734323D01*
X174695237Y-102734323D02*
X174742856Y-102543847D01*
X174742856Y-102543847D02*
X174742856Y-102400990D01*
X174742856Y-102400990D02*
X174695237Y-102210514D01*
X174695237Y-102210514D02*
X174647618Y-102115276D01*
X174647618Y-102115276D02*
X174552380Y-102020038D01*
X174552380Y-102020038D02*
X174409523Y-101972419D01*
X174409523Y-101972419D02*
X174314285Y-101972419D01*
X174314285Y-101972419D02*
X174171428Y-102020038D01*
X174171428Y-102020038D02*
X174123809Y-102067657D01*
X173695237Y-102972419D02*
X173695237Y-101972419D01*
X173266666Y-102972419D02*
X173266666Y-102448609D01*
X173266666Y-102448609D02*
X173314285Y-102353371D01*
X173314285Y-102353371D02*
X173409523Y-102305752D01*
X173409523Y-102305752D02*
X173552380Y-102305752D01*
X173552380Y-102305752D02*
X173647618Y-102353371D01*
X173647618Y-102353371D02*
X173695237Y-102400990D01*
X172790475Y-102972419D02*
X172790475Y-102305752D01*
X172790475Y-102496228D02*
X172742856Y-102400990D01*
X172742856Y-102400990D02*
X172695237Y-102353371D01*
X172695237Y-102353371D02*
X172599999Y-102305752D01*
X172599999Y-102305752D02*
X172504761Y-102305752D01*
X172028570Y-102972419D02*
X172123808Y-102924800D01*
X172123808Y-102924800D02*
X172171427Y-102877180D01*
X172171427Y-102877180D02*
X172219046Y-102781942D01*
X172219046Y-102781942D02*
X172219046Y-102496228D01*
X172219046Y-102496228D02*
X172171427Y-102400990D01*
X172171427Y-102400990D02*
X172123808Y-102353371D01*
X172123808Y-102353371D02*
X172028570Y-102305752D01*
X172028570Y-102305752D02*
X171885713Y-102305752D01*
X171885713Y-102305752D02*
X171790475Y-102353371D01*
X171790475Y-102353371D02*
X171742856Y-102400990D01*
X171742856Y-102400990D02*
X171695237Y-102496228D01*
X171695237Y-102496228D02*
X171695237Y-102781942D01*
X171695237Y-102781942D02*
X171742856Y-102877180D01*
X171742856Y-102877180D02*
X171790475Y-102924800D01*
X171790475Y-102924800D02*
X171885713Y-102972419D01*
X171885713Y-102972419D02*
X172028570Y-102972419D01*
X171266665Y-102972419D02*
X171266665Y-102305752D01*
X171266665Y-102400990D02*
X171219046Y-102353371D01*
X171219046Y-102353371D02*
X171123808Y-102305752D01*
X171123808Y-102305752D02*
X170980951Y-102305752D01*
X170980951Y-102305752D02*
X170885713Y-102353371D01*
X170885713Y-102353371D02*
X170838094Y-102448609D01*
X170838094Y-102448609D02*
X170838094Y-102972419D01*
X170838094Y-102448609D02*
X170790475Y-102353371D01*
X170790475Y-102353371D02*
X170695237Y-102305752D01*
X170695237Y-102305752D02*
X170552380Y-102305752D01*
X170552380Y-102305752D02*
X170457141Y-102353371D01*
X170457141Y-102353371D02*
X170409522Y-102448609D01*
X170409522Y-102448609D02*
X170409522Y-102972419D01*
X169504761Y-102972419D02*
X169504761Y-102448609D01*
X169504761Y-102448609D02*
X169552380Y-102353371D01*
X169552380Y-102353371D02*
X169647618Y-102305752D01*
X169647618Y-102305752D02*
X169838094Y-102305752D01*
X169838094Y-102305752D02*
X169933332Y-102353371D01*
X169504761Y-102924800D02*
X169599999Y-102972419D01*
X169599999Y-102972419D02*
X169838094Y-102972419D01*
X169838094Y-102972419D02*
X169933332Y-102924800D01*
X169933332Y-102924800D02*
X169980951Y-102829561D01*
X169980951Y-102829561D02*
X169980951Y-102734323D01*
X169980951Y-102734323D02*
X169933332Y-102639085D01*
X169933332Y-102639085D02*
X169838094Y-102591466D01*
X169838094Y-102591466D02*
X169599999Y-102591466D01*
X169599999Y-102591466D02*
X169504761Y-102543847D01*
D11*
X180518118Y-104448926D02*
X181074499Y-104448926D01*
X181074499Y-104448926D02*
X181130137Y-105005307D01*
X181130137Y-105005307D02*
X181074499Y-104949668D01*
X181074499Y-104949668D02*
X180963223Y-104894030D01*
X180963223Y-104894030D02*
X180685032Y-104894030D01*
X180685032Y-104894030D02*
X180573756Y-104949668D01*
X180573756Y-104949668D02*
X180518118Y-105005307D01*
X180518118Y-105005307D02*
X180462480Y-105116583D01*
X180462480Y-105116583D02*
X180462480Y-105394773D01*
X180462480Y-105394773D02*
X180518118Y-105506049D01*
X180518118Y-105506049D02*
X180573756Y-105561688D01*
X180573756Y-105561688D02*
X180685032Y-105617326D01*
X180685032Y-105617326D02*
X180963223Y-105617326D01*
X180963223Y-105617326D02*
X181074499Y-105561688D01*
X181074499Y-105561688D02*
X181130137Y-105506049D01*
X180128651Y-104448926D02*
X179739185Y-105617326D01*
X179739185Y-105617326D02*
X179349718Y-104448926D01*
X127939707Y-94141390D02*
X127995345Y-94308304D01*
X127995345Y-94308304D02*
X128050983Y-94363942D01*
X128050983Y-94363942D02*
X128162259Y-94419580D01*
X128162259Y-94419580D02*
X128329173Y-94419580D01*
X128329173Y-94419580D02*
X128440449Y-94363942D01*
X128440449Y-94363942D02*
X128496088Y-94308304D01*
X128496088Y-94308304D02*
X128551726Y-94197028D01*
X128551726Y-94197028D02*
X128551726Y-93751923D01*
X128551726Y-93751923D02*
X127383326Y-93751923D01*
X127383326Y-93751923D02*
X127383326Y-94141390D01*
X127383326Y-94141390D02*
X127438964Y-94252666D01*
X127438964Y-94252666D02*
X127494602Y-94308304D01*
X127494602Y-94308304D02*
X127605878Y-94363942D01*
X127605878Y-94363942D02*
X127717154Y-94363942D01*
X127717154Y-94363942D02*
X127828430Y-94308304D01*
X127828430Y-94308304D02*
X127884068Y-94252666D01*
X127884068Y-94252666D02*
X127939707Y-94141390D01*
X127939707Y-94141390D02*
X127939707Y-93751923D01*
X128551726Y-95476704D02*
X128551726Y-94920323D01*
X128551726Y-94920323D02*
X127383326Y-94920323D01*
X128217897Y-95810533D02*
X128217897Y-96366914D01*
X128551726Y-95699257D02*
X127383326Y-96088723D01*
X127383326Y-96088723D02*
X128551726Y-96478190D01*
X128440449Y-97535314D02*
X128496088Y-97479676D01*
X128496088Y-97479676D02*
X128551726Y-97312762D01*
X128551726Y-97312762D02*
X128551726Y-97201486D01*
X128551726Y-97201486D02*
X128496088Y-97034571D01*
X128496088Y-97034571D02*
X128384811Y-96923295D01*
X128384811Y-96923295D02*
X128273535Y-96867657D01*
X128273535Y-96867657D02*
X128050983Y-96812019D01*
X128050983Y-96812019D02*
X127884068Y-96812019D01*
X127884068Y-96812019D02*
X127661516Y-96867657D01*
X127661516Y-96867657D02*
X127550240Y-96923295D01*
X127550240Y-96923295D02*
X127438964Y-97034571D01*
X127438964Y-97034571D02*
X127383326Y-97201486D01*
X127383326Y-97201486D02*
X127383326Y-97312762D01*
X127383326Y-97312762D02*
X127438964Y-97479676D01*
X127438964Y-97479676D02*
X127494602Y-97535314D01*
X128551726Y-98036057D02*
X127383326Y-98036057D01*
X128551726Y-98703714D02*
X127884068Y-98202971D01*
X127383326Y-98703714D02*
X128050983Y-98036057D01*
D12*
X166815925Y-121583064D02*
X166815925Y-122423441D01*
X166815925Y-122423441D02*
X166871950Y-122591516D01*
X166871950Y-122591516D02*
X166984000Y-122703567D01*
X166984000Y-122703567D02*
X167152076Y-122759592D01*
X167152076Y-122759592D02*
X167264126Y-122759592D01*
X166311699Y-121695114D02*
X166255674Y-121639089D01*
X166255674Y-121639089D02*
X166143624Y-121583064D01*
X166143624Y-121583064D02*
X165863498Y-121583064D01*
X165863498Y-121583064D02*
X165751448Y-121639089D01*
X165751448Y-121639089D02*
X165695422Y-121695114D01*
X165695422Y-121695114D02*
X165639397Y-121807164D01*
X165639397Y-121807164D02*
X165639397Y-121919215D01*
X165639397Y-121919215D02*
X165695422Y-122087290D01*
X165695422Y-122087290D02*
X166367724Y-122759592D01*
X166367724Y-122759592D02*
X165639397Y-122759592D01*
D13*
X161962176Y-111940927D02*
X162585323Y-111940927D01*
X162585323Y-111940927D02*
X162184728Y-111006207D01*
X157784728Y-111540333D02*
X157695707Y-111584843D01*
X157695707Y-111584843D02*
X157651197Y-111629354D01*
X157651197Y-111629354D02*
X157606686Y-111718375D01*
X157606686Y-111718375D02*
X157606686Y-111762885D01*
X157606686Y-111762885D02*
X157651197Y-111851906D01*
X157651197Y-111851906D02*
X157695707Y-111896417D01*
X157695707Y-111896417D02*
X157784728Y-111940927D01*
X157784728Y-111940927D02*
X157962770Y-111940927D01*
X157962770Y-111940927D02*
X158051791Y-111896417D01*
X158051791Y-111896417D02*
X158096302Y-111851906D01*
X158096302Y-111851906D02*
X158140812Y-111762885D01*
X158140812Y-111762885D02*
X158140812Y-111718375D01*
X158140812Y-111718375D02*
X158096302Y-111629354D01*
X158096302Y-111629354D02*
X158051791Y-111584843D01*
X158051791Y-111584843D02*
X157962770Y-111540333D01*
X157962770Y-111540333D02*
X157784728Y-111540333D01*
X157784728Y-111540333D02*
X157695707Y-111495822D01*
X157695707Y-111495822D02*
X157651197Y-111451312D01*
X157651197Y-111451312D02*
X157606686Y-111362291D01*
X157606686Y-111362291D02*
X157606686Y-111184249D01*
X157606686Y-111184249D02*
X157651197Y-111095228D01*
X157651197Y-111095228D02*
X157695707Y-111050718D01*
X157695707Y-111050718D02*
X157784728Y-111006207D01*
X157784728Y-111006207D02*
X157962770Y-111006207D01*
X157962770Y-111006207D02*
X158051791Y-111050718D01*
X158051791Y-111050718D02*
X158096302Y-111095228D01*
X158096302Y-111095228D02*
X158140812Y-111184249D01*
X158140812Y-111184249D02*
X158140812Y-111362291D01*
X158140812Y-111362291D02*
X158096302Y-111451312D01*
X158096302Y-111451312D02*
X158051791Y-111495822D01*
X158051791Y-111495822D02*
X157962770Y-111540333D01*
X163951791Y-120229354D02*
X163951791Y-119606207D01*
X163729239Y-120585438D02*
X163506686Y-119917780D01*
X163506686Y-119917780D02*
X164085323Y-119917780D01*
X156496302Y-120540927D02*
X156051197Y-120540927D01*
X156051197Y-120540927D02*
X156006686Y-120095822D01*
X156006686Y-120095822D02*
X156051197Y-120140333D01*
X156051197Y-120140333D02*
X156140218Y-120184843D01*
X156140218Y-120184843D02*
X156362770Y-120184843D01*
X156362770Y-120184843D02*
X156451791Y-120140333D01*
X156451791Y-120140333D02*
X156496302Y-120095822D01*
X156496302Y-120095822D02*
X156540812Y-120006801D01*
X156540812Y-120006801D02*
X156540812Y-119784249D01*
X156540812Y-119784249D02*
X156496302Y-119695228D01*
X156496302Y-119695228D02*
X156451791Y-119650718D01*
X156451791Y-119650718D02*
X156362770Y-119606207D01*
X156362770Y-119606207D02*
X156140218Y-119606207D01*
X156140218Y-119606207D02*
X156051197Y-119650718D01*
X156051197Y-119650718D02*
X156006686Y-119695228D01*
X159806686Y-121951906D02*
X159851197Y-121996417D01*
X159851197Y-121996417D02*
X159940218Y-122040927D01*
X159940218Y-122040927D02*
X160162770Y-122040927D01*
X160162770Y-122040927D02*
X160251791Y-121996417D01*
X160251791Y-121996417D02*
X160296302Y-121951906D01*
X160296302Y-121951906D02*
X160340812Y-121862885D01*
X160340812Y-121862885D02*
X160340812Y-121773864D01*
X160340812Y-121773864D02*
X160296302Y-121640333D01*
X160296302Y-121640333D02*
X159762176Y-121106207D01*
X159762176Y-121106207D02*
X160340812Y-121106207D01*
X154462176Y-116640927D02*
X155040812Y-116640927D01*
X155040812Y-116640927D02*
X154729239Y-116284843D01*
X154729239Y-116284843D02*
X154862770Y-116284843D01*
X154862770Y-116284843D02*
X154951791Y-116240333D01*
X154951791Y-116240333D02*
X154996302Y-116195822D01*
X154996302Y-116195822D02*
X155040812Y-116106801D01*
X155040812Y-116106801D02*
X155040812Y-115884249D01*
X155040812Y-115884249D02*
X154996302Y-115795228D01*
X154996302Y-115795228D02*
X154951791Y-115750718D01*
X154951791Y-115750718D02*
X154862770Y-115706207D01*
X154862770Y-115706207D02*
X154595707Y-115706207D01*
X154595707Y-115706207D02*
X154506686Y-115750718D01*
X154506686Y-115750718D02*
X154462176Y-115795228D01*
X165840812Y-115706207D02*
X165306686Y-115706207D01*
X165573749Y-115706207D02*
X165573749Y-116640927D01*
X165573749Y-116640927D02*
X165484728Y-116507396D01*
X165484728Y-116507396D02*
X165395707Y-116418375D01*
X165395707Y-116418375D02*
X165306686Y-116373864D01*
X160251791Y-117740927D02*
X160073749Y-117740927D01*
X160073749Y-117740927D02*
X159984728Y-117696417D01*
X159984728Y-117696417D02*
X159940218Y-117651906D01*
X159940218Y-117651906D02*
X159851197Y-117518375D01*
X159851197Y-117518375D02*
X159806686Y-117340333D01*
X159806686Y-117340333D02*
X159806686Y-116984249D01*
X159806686Y-116984249D02*
X159851197Y-116895228D01*
X159851197Y-116895228D02*
X159895707Y-116850718D01*
X159895707Y-116850718D02*
X159984728Y-116806207D01*
X159984728Y-116806207D02*
X160162770Y-116806207D01*
X160162770Y-116806207D02*
X160251791Y-116850718D01*
X160251791Y-116850718D02*
X160296302Y-116895228D01*
X160296302Y-116895228D02*
X160340812Y-116984249D01*
X160340812Y-116984249D02*
X160340812Y-117206801D01*
X160340812Y-117206801D02*
X160296302Y-117295822D01*
X160296302Y-117295822D02*
X160251791Y-117340333D01*
X160251791Y-117340333D02*
X160162770Y-117384843D01*
X160162770Y-117384843D02*
X159984728Y-117384843D01*
X159984728Y-117384843D02*
X159895707Y-117340333D01*
X159895707Y-117340333D02*
X159851197Y-117295822D01*
X159851197Y-117295822D02*
X159806686Y-117206801D01*
D14*
%TO.C,J2*%
X161173750Y-110034400D02*
G75*
G02*
X158973750Y-110034400I-1100000J100000D01*
G01*
X166273750Y-116134400D02*
G75*
G02*
X153873750Y-116134400I-6200000J0D01*
G01*
X153873750Y-116134400D02*
G75*
G02*
X166273750Y-116134400I6200000J0D01*
G01*
X166873750Y-116134400D02*
G75*
G02*
X153273750Y-116134400I-6800000J0D01*
G01*
X153273750Y-116134400D02*
G75*
G02*
X166873750Y-116134400I6800000J0D01*
G01*
%TD*%
M02*
